<?xml version="1.0" standalone="no"?>
<!DOCTYPE svg PUBLIC "-//W3C//DTD SVG 1.1//EN" "http://www.w3.org/Graphics/SVG/1.1/DTD/svg11.dtd" >
<svg xmlns="http://www.w3.org/2000/svg" xmlns:xlink="http://www.w3.org/1999/xlink" version="1.1">
<metadata></metadata>
<defs>
<font id="jennerikbold" horiz-adv-x="1128" >
<font-face units-per-em="2048" ascent="1638" descent="-410" />
<missing-glyph horiz-adv-x="802" />
<glyph horiz-adv-x="0" />
<glyph unicode="&#xd;" horiz-adv-x="802" />
<glyph unicode=" "  horiz-adv-x="802" />
<glyph unicode="&#x09;" horiz-adv-x="802" />
<glyph unicode="&#xa0;" horiz-adv-x="802" />
<glyph unicode="!" horiz-adv-x="663" d="M129 43q0 47 35 80t82 33q45 0 79.5 -33t34.5 -80q0 -45 -34.5 -79t-79.5 -34q-47 0 -82 34t-35 79zM160 453v927q0 78 80 78q77 0 77 -78v-927q0 -78 -77 -78q-80 0 -80 78z" />
<glyph unicode="&#x22;" horiz-adv-x="724" d="M51 1313q0 59 39 105t96 46t99.5 -37t42.5 -96q0 -49 -43 -162q-31 -76 -60 -149l-67 4l-23 166q-84 35 -84 123zM412 1313q0 59 38.5 105t96.5 46q59 0 100 -37t41 -96q0 -49 -43 -162q-29 -76 -59 -149l-66 4l-24 166q-84 35 -84 123z" />
<glyph unicode="#" horiz-adv-x="1150" d="M16 451q0 78 78 77h144l51 373q-10 0 -39 -2h-45q-117 0 -117 78t78 78h145l29 200q8 66 76 66q82 0 82 -74q0 -6 -29 -192h205l28 200q10 66 78 66q80 0 80 -74q0 -6 -24 -192h36q29 2 46 2q117 0 116 -80q0 -76 -78 -76h-143l-51 -373q8 0 37 2h45q117 0 117 -79 q0 -78 -80 -78h-140l-28 -203q-8 -66 -78 -66q-80 0 -80 74q0 6 27 195h-207l-27 -201q-10 -66 -78 -66q-80 0 -80 74q0 6 27 193h-39q-29 -2 -45 -2q-117 0 -117 80zM397 528h205l53 373h-204z" />
<glyph unicode="$" horiz-adv-x="925" d="M-18 438q0 31 23.5 51.5t53.5 20.5q51 0 82 -68q49 -111 66 -133q59 -76 178 -88v449q-158 12 -262 116q-111 109 -111 265t113 241q100 76 262 78v189q0 63 57 63q55 0 56 -63v-199q168 -41 260 -225q12 -25 12 -41q0 -29 -24.5 -49.5t-55.5 -20.5q-45 0 -96 76 q-57 86 -96 100v-381q145 -20 235 -126.5t90 -254.5q0 -147 -89 -248.5t-236 -123.5q0 -6 2 -33t2 -45q0 -104 -60 -105q-59 0 -59 105v41q2 27 2 32q-152 12 -260 111q-102 92 -143 244q-2 12 -2 22zM170 1055q0 -92 62.5 -154t154.5 -74v381q-109 0 -151 -22 q-66 -33 -66 -131zM500 219q80 12 125 76q43 57 43 141q0 82 -45 148t-123 80v-445z" />
<glyph unicode="%" horiz-adv-x="1196" d="M16 950q0 129 60 221q72 106 192 107q123 0 195 -107q61 -92 61 -221t-61 -221q-72 -106 -195 -106q-121 0 -192 106q-59 92 -60 221zM86 53q0 23 360 596q207 324 414 649q14 25 45 25t62.5 -23.5t31.5 -54.5q0 -23 -360 -594q-207 -326 -412 -651q-16 -25 -47 -25 t-62.5 24t-31.5 54zM184 950q0 -59 17 -108q22 -68 67 -68q47 0 70 68q16 49 16 108q0 57 -16 107q-23 68 -70 67q-45 0 -67 -67q-16 -49 -17 -107zM559 350q0 127 59 219q70 106 193 107q123 0 193 -105q61 -92 61 -221t-61 -221q-70 -106 -193 -106t-193 106 q-59 92 -59 221zM727 350q0 -59 16 -108q23 -68 68 -68q47 0 70 68q16 49 16 108q0 57 -16 107q-23 68 -70 67q-45 0 -68 -67q-16 -49 -16 -107z" />
<glyph unicode="&#x26;" horiz-adv-x="1228" d="M49 350q0 201 176 424q-57 100 -57 209q0 143 93 254t233 111q72 0 163 -43q109 -49 109 -107q0 -33 -24.5 -57.5t-57.5 -24.5q-18 0 -77.5 39t-112.5 39q-74 0 -117 -56.5t-43 -133.5q0 -109 86 -230q100 -144 317 -420q53 162 72 289q-98 14 -174 78q0 39 28.5 90 t65.5 51q27 0 27 -43q0 -23 49 -24q-90 4 69 4q162 0 252 -121q0 -39 -29.5 -79t-68.5 -40q-31 0 -36 38t-25 38q-25 -180 -109 -412q78 -82 189 -157q35 -25 34 -60q0 -31 -22.5 -56.5t-54.5 -25.5q-49 0 -220 152q-100 -139 -290 -139q-180 0 -310 116q-135 119 -135 297z M213 340q0 -113 79 -181.5t193 -68.5q147 0 189 98q-188 207 -350 451q-111 -168 -111 -299z" />
<glyph unicode="'" horiz-adv-x="378" d="M51 1313q0 59 39 105t96 46t99.5 -37t42.5 -96q0 -49 -43 -162q-31 -76 -60 -149l-67 4l-23 166q-84 35 -84 123z" />
<glyph unicode="(" horiz-adv-x="475" d="M25 725q0 365 137 684q18 47 63 135q27 43 68 43q31 0 56.5 -21.5t25.5 -52.5q0 -16 -10 -34q-104 -236 -140 -365q-45 -166 -45 -389q0 -252 39 -420q37 -156 146 -393q10 -18 10 -35q0 -31 -25.5 -52.5t-58.5 -21.5q-41 0 -66 43q-18 31 -67 144q-133 322 -133 735z " />
<glyph unicode=")" horiz-adv-x="507" d="M82 -123q0 16 8 35q109 238 146 393q39 170 38 420q0 223 -43 389q-35 131 -141 365q-8 18 -8 32q0 33 25.5 54.5t56.5 21.5q41 0 67 -43q14 -27 64 -135q137 -317 137 -684q0 -414 -135 -735q-20 -49 -66 -144q-27 -45 -67 -45q-33 0 -57.5 21.5t-24.5 54.5z" />
<glyph unicode="*" horiz-adv-x="899" d="M100 846q0 39 37 61l172 115l-170 113q-37 23 -37 61q0 31 24 55.5t56 24.5q31 0 99 -47q43 -31 88 -64v213q0 76 80 76q78 0 77 -76v-211q45 31 88 64q68 45 99 45t54.5 -24.5t23.5 -55.5q0 -39 -35 -61l-170 -111l172 -115q35 -23 35 -61q0 -31 -24 -55.5t-56 -24.5 q-31 0 -97 45q-45 33 -90 64v-209q0 -76 -77 -76q-80 0 -80 76v209q-45 -31 -90 -64q-68 -47 -99 -47q-33 0 -56.5 24.5t-23.5 55.5z" />
<glyph unicode="+" horiz-adv-x="831" d="M23 444q0 78 77 78h201v277q0 78 78 78q80 0 80 -78v-277h198q78 0 78 -78t-78 -77h-198v-252q0 -78 -80 -78q-78 0 -78 78v252h-201q-78 0 -77 77z" />
<glyph unicode="," horiz-adv-x="421" d="M51 49q0 57 39 103.5t96 46.5t99.5 -37t42.5 -94q0 -74 -74 -213q-53 -92 -104 -185l-72 41l57 215q-84 35 -84 123z" />
<glyph unicode="-" horiz-adv-x="903" d="M55 481q0 78 80 78h572q78 0 77 -78q0 -76 -77 -75h-572q-80 0 -80 75z" />
<glyph unicode="." horiz-adv-x="669" d="M135 57q0 57 37 93t92 36t90 -35.5t35 -93.5q0 -55 -35 -91t-90 -36t-92 36t-37 91z" />
<glyph unicode="/" horiz-adv-x="882" d="M-51 0q0 16 8 35l674 1360q20 43 65 43q33 0 58.5 -21.5t25.5 -54.5q0 -16 -10 -35l-672 -1362q-20 -41 -65 -41q-33 0 -58.5 21.5t-25.5 54.5z" />
<glyph unicode="0" d="M14 662q0 276 105 489q133 270 381 270q250 0 385 -266q106 -213 106 -491q0 -276 -106 -490q-135 -266 -385 -266q-248 0 -381 266q-104 211 -105 488zM180 664q0 -205 64 -373q86 -232 256 -232q172 0 258 232q63 166 63 373t-63 372q-86 231 -258 232 q-170 0 -256 -232q-63 -168 -64 -372z" />
<glyph unicode="1" d="M242 0q0 78 112 78h37q23 -2 33 -2v1083q-72 -61 -100 -61q-31 0 -55.5 23.5t-24.5 54.5q0 33 26 55l181 151q23 20 53 21q31 0 53.5 -21.5t22.5 -54.5v-1251q10 0 36.5 2t40.5 2q115 0 115 -80q0 -76 -78 -76h-375q-78 0 -77 76z" />
<glyph unicode="2" d="M25 -10q0 150 421 526q47 37 132 115q209 233 208 411q0 106 -92 166q-78 51 -190 52q-221 0 -281 -207q-18 -61 -73 -62q-33 0 -57.5 21.5t-24.5 54.5q0 145 149 252q133 94 285 94q176 0 301 -94q139 -104 139 -272q0 -186 -131 -373q-86 -123 -287 -307 q-223 -209 -286 -285h569q0 78 6 96q14 51 72 51q84 0 84 -125q0 -18 -2 -52t-2 -46q0 -76 -80 -76h-779q-82 0 -81 60z" />
<glyph unicode="3" d="M41 139q0 33 24.5 56.5t55.5 23.5q10 0 138 -78t230 -78q137 0 230 113q86 106 86 246q0 33 -19 113q-29 113 -106 147q-53 23 -186 20h-58q-35 0 -60.5 24t-25.5 58q0 27 23 52q193 203 291 403h-416q0 -78 -6 -96q-14 -51 -74 -51q-82 0 -82 125q0 18 2 53t2 47 q0 76 78 76h616q82 0 82 -68q0 -59 -110 -244q-88 -147 -150 -223q170 -25 263.5 -140.5t93.5 -289.5q0 -199 -146.5 -358.5t-343.5 -159.5q-102 0 -214 49t-189 123q-29 29 -29 57z" />
<glyph unicode="4" d="M23 358q0 25 16 48l663 978q20 33 62 33q33 0 57.5 -21.5t24.5 -54.5v-901q78 0 96 -6q51 -14 51 -72q0 -57 -51 -71q-18 -6 -96 -6v-209q74 0 92 -6q49 -14 49 -70q0 -76 -78 -76h-282q-78 0 -78 76q0 55 47 70q20 6 92 6v209h-586q-80 0 -79 73zM250 440h438v647z" />
<glyph unicode="5" d="M82 98q0 31 23.5 54.5t54.5 23.5q12 0 109.5 -54t185.5 -54q147 0 237 110q86 102 86 252q0 104 -39 209q-29 76 -141 123q-96 41 -192 41q-55 0 -120 -25.5t-75 -25.5q-31 0 -54.5 26.5t-19.5 59.5l53 469q8 70 78 69l539 -2q78 0 78 -78v-147q0 -78 -78 -78 q-59 0 -74 51q-4 19 -4 99l-389 2l-33 -279q59 12 123 12q233 0 372.5 -146t139.5 -380q0 -211 -142.5 -364.5t-350.5 -153.5q-195 0 -338 131q-29 25 -29 55z" />
<glyph unicode="6" d="M57 401q0 102 37 191l328 764q18 45 63 45q33 0 59.5 -23.5t26.5 -54.5q0 -14 -249 -598q121 41 225 41q176 0 283.5 -113.5t107.5 -292.5q0 -188 -116 -310t-302 -122q-205 0 -334 134.5t-129 338.5zM215 397q0 -143 89 -229t233 -86q111 0 180 90q63 82 63 197 q0 109 -63.5 177t-171.5 68q-61 0 -156.5 -33.5t-105.5 -33.5q-21 0 -35 8q-33 -78 -33 -158z" />
<glyph unicode="7" d="M53 1167v138q0 76 80 75h772q80 0 80 -67q0 -31 -197 -631q-115 -346 -227 -690q-18 -51 -72 -51q-33 0 -57 20.5t-24 52.5q0 12 391 1215h-588q0 -72 -6 -92q-16 -47 -72 -47q-80 0 -80 77z" />
<glyph unicode="8" d="M74 338q0 119 56.5 223.5t156.5 163.5q-147 109 -148 299q0 172 118 280.5t292 108.5q172 0 287 -104q119 -111 118 -281q0 -190 -147 -299q102 -59 160.5 -163.5t58.5 -225.5q0 -201 -136 -321.5t-341 -120.5t-340 119.5t-135 320.5zM227 340q0 -133 97 -213 q88 -76 225 -76q135 0 228 79t93 212t-93 215t-228 82q-137 0 -229.5 -83t-92.5 -216zM297 1028q0 -104 76 -168q70 -59 176 -59t177 59.5t71 163.5t-72 170t-176 66q-106 0 -179 -65t-73 -167z" />
<glyph unicode="9" d="M47 973q0 182 111 307t293 125q201 0 335 -139.5t134 -341.5q0 -96 -37 -181l-326 -763q-23 -51 -70 -52q-33 0 -57 23.5t-24 54.5q0 16 251 604q-121 -41 -223 -41q-176 0 -281.5 114t-105.5 290zM203 965q0 -109 61.5 -176.5t167.5 -67.5q61 0 156.5 33.5t107.5 33.5 q19 0 35 -8q31 78 31 158q0 145 -92 229t-240 84q-104 0 -170 -94q-57 -86 -57 -192z" />
<glyph unicode=":" horiz-adv-x="593" d="M135 57q0 57 37 93t92 36t90 -35.5t35 -93.5q0 -55 -35 -91t-90 -36t-92 36t-37 91zM139 606q0 57 37 93t92 36t90 -35.5t35 -93.5q0 -55 -35 -91t-90 -36t-92 36t-37 91z" />
<glyph unicode=";" horiz-adv-x="544" d="M51 49q0 57 39 103.5t96 46.5t99.5 -37t42.5 -94q0 -74 -74 -213q-53 -92 -104 -185l-72 41l57 215q-84 35 -84 123zM80 606q0 57 39 93t98 36q57 0 94 -36.5t37 -92.5q0 -55 -37 -92t-94 -37q-59 0 -98 37t-39 92z" />
<glyph unicode="&#x3c;" horiz-adv-x="739" d="M16 520q0 29 29 55l530 523q25 23 54 22q33 0 58.5 -24.5t25.5 -57.5q0 -29 -25 -51l-475 -465l475 -469q25 -23 25 -51q0 -31 -25.5 -55.5t-56.5 -24.5t-56 25l-530 518q-29 28 -29 55z" />
<glyph unicode="=" horiz-adv-x="874" d="M59 369q0 77 80 77h559q78 0 78 -77q0 -76 -78 -76h-559q-80 0 -80 76zM59 748q0 77 80 77h559q78 0 78 -77q0 -78 -78 -78h-559q-80 0 -80 78z" />
<glyph unicode="&#x3e;" horiz-adv-x="739" d="M4 -4q0 29 25 53l475 467l-475 465q-25 23 -25 53q0 31 25.5 55.5t58.5 24.5q29 0 53 -22l531 -523q29 -27 28 -55q0 -27 -28 -55l-531 -518q-25 -25 -55 -25q-31 0 -56.5 24.5t-25.5 55.5z" />
<glyph unicode="?" horiz-adv-x="925" d="M88 1176q0 123 82 203.5t205 80.5q160 0 258 -121q92 -111 92 -274q0 -190 -106.5 -311t-294.5 -138v-204q0 -78 -78 -78q-80 0 -80 78v280q0 72 104 82q150 14 195 41q102 66 102 268q0 92 -43 152q-49 70 -137 70q-141 0 -141 -129q0 -80 -80 -80q-78 0 -78 80zM135 57 q0 57 37 93t92 36t90 -35.5t35 -93.5q0 -55 -35 -91t-90 -36t-92 36t-37 91z" />
<glyph unicode="@" horiz-adv-x="1681" d="M66 592q0 385 266 637q260 246 649 246q270 0 441 -169t171 -438q0 -229 -135 -399q-147 -180 -373 -180q-88 0 -122 178q-37 -57 -130.5 -104.5t-164.5 -47.5q-98 0 -154 72q-49 63 -49 166q0 197 147 330q141 129 340 129q74 0 105 -11q59 -16 59 -71 q0 -35 -22.5 -58.5t-55.5 -23.5q-14 0 -43 3t-43 3q-137 0 -229 -76q-100 -80 -100 -213q0 -129 82 -129q41 0 96 56q78 80 113.5 152.5t52.5 184.5l4 11q31 8 55 8q88 0 88 -117q0 -41 -11 -120t-11 -117q0 -31 6 -52l18 -2q154 -4 246 131q80 117 80 279q0 207 -125 340 t-330 133q-319 0 -542.5 -213t-223.5 -528q0 -260 154 -426q160 -172 416 -172q168 0 401 92q18 8 35 8q31 0 52 -24.5t21 -55.5q0 -43 -47 -67q-86 -45 -227 -74q-133 -27 -238 -27q-324 0 -523 215t-199 541z" />
<glyph unicode="A" horiz-adv-x="1456" d="M-10 0q0 53 45 70q23 6 88 6l459 1224q-61 0 -84 11q-41 14 -41 67q0 76 78 76h157q76 0 76 -61l504 -1317q72 0 92 -6q49 -14 49 -70q0 -76 -78 -76h-274q-80 0 -80 76q0 49 39 66q25 10 82 10l-117 307h-582l-114 -307q63 0 86 -8q43 -14 43 -68q0 -76 -78 -76h-272 q-78 0 -78 76zM461 539h465l-234 610z" />
<glyph unicode="B" horiz-adv-x="1294" d="M20 0q0 55 46 70q23 6 90 6v1229q-61 0 -84 10q-39 14 -39 71q0 72 69 72h535q188 0 319 -98q143 -109 144 -291q0 -182 -168 -289q270 -134 270 -413q0 -207 -162 -330q-150 -113 -362 -113h-580q-78 0 -78 76zM313 76h365q156 0 252 59q117 72 117 217q0 143 -125 248 q-117 96 -265 100q-78 2 -258 2q-51 0 -86 -2v-624zM313 854h344q88 0 183 55q104 63 104 148q0 127 -94 192q-82 55 -213 56h-324v-451z" />
<glyph unicode="C" horiz-adv-x="1374" d="M66 678q0 326 165 551q184 252 498 252q182 0 334 -103q12 20 43 21q33 0 58.5 -19.5t25.5 -50.5v-235q0 -45 -74 -45q-84 0 -84 92v-2l2 65q-133 123 -313 123q-248 0 -383 -215q-115 -182 -115 -446q0 -256 123 -430q137 -195 385 -195q195 0 375 235q31 41 65 41 q31 0 56.5 -22.5t25.5 -52.5q0 -16 -10 -39q-14 -33 -67 -94q-186 -223 -445 -224q-129 0 -254 60q-205 94 -313 303q-98 188 -98 430z" />
<glyph unicode="D" horiz-adv-x="1306" d="M20 0q0 55 48 70q22 6 92 6v1224q-68 0 -88 9q-47 14 -47 69q0 76 77 76h465q319 0 492 -246q151 -212 151 -540q0 -305 -127 -506q-152 -238 -434 -238h-551q-78 0 -78 76zM317 76h332q209 0 318 198q88 158 88 390q0 272 -105 436q-124 198 -380 198h-3h-250v-1222z " />
<glyph unicode="E" horiz-adv-x="1245" d="M20 0q0 55 46 70q20 6 90 6v1224q-70 0 -90 9q-45 14 -46 69q0 76 76 76h799q20 45 74 45q63 0 71 -63q37 -299 37 -303q0 -74 -78 -74q-66 0 -73 63l-21 178h-594v-477h418q0 104 2 111q12 63 76 63q76 0 76 -73v-373q0 -76 -76 -76q-80 0 -80 113q0 16 2 43v37h-418 v-592h672l37 184q10 57 72 57q75 0 75 -65q0 -10 -49 -266q-12 -61 -76 -62h-946q-76 0 -76 76z" />
<glyph unicode="F" horiz-adv-x="1185" d="M20 1378q0 76 76 76h799q20 43 74 43q63 0 71 -63q37 -297 37 -301q0 -74 -78 -74q-66 0 -73 63l-21 178h-594v-477h414q0 104 2 113q12 61 78 61q78 0 78 -73v-377q0 -76 -78 -76q-82 0 -82 115q0 16 2 43v39h-414v-592q10 0 36 2t40 2q111 0 111 -80q0 -76 -76 -76 h-322q-75 0 -75 74q0 55 43 72q20 6 88 6v1227q-70 0 -90 6q-45 14 -46 69z" />
<glyph unicode="G" horiz-adv-x="1417" d="M66 678q0 326 165 551q184 252 498 252q182 0 334 -103q20 20 51 21q76 0 76 -78v-207q0 -67 -74 -67h-2q-63 0 -78 53q-2 14 -2 104q-133 123 -313 123q-248 0 -383 -215q-115 -182 -115 -444q0 -420 307 -564q100 -47 201 -47q211 0 371 195v199h-168q-78 0 -78 75 q0 78 78 78h336q76 0 76 -72q0 -37 -28 -60q-26 -21 -59 -21h-6v-265q-82 -125 -227 -202.5t-295 -77.5q-117 0 -239 53q-209 92 -322 293q-104 186 -104 426z" />
<glyph unicode="H" horiz-adv-x="1349" d="M20 0q0 53 46 70q23 6 88 6v1224q-66 0 -88 9q-45 14 -46 69q0 76 78 76h267q79 0 79 -74q0 -57 -45 -71q-23 -8 -88 -9v-552h682v552q-66 0 -88 9q-43 14 -43 69q0 76 78 76h264q78 0 78 -76q0 -55 -43 -69q-23 -8 -88 -9v-1224q66 0 88 -6q43 -16 43 -70q0 -76 -78 -76 h-264q-78 0 -78 76q0 53 43 70q23 6 88 6v518h-682v-518q66 0 88 -6q45 -16 45 -70q0 -76 -79 -76h-267q-78 0 -78 76z" />
<glyph unicode="I" horiz-adv-x="700" d="M63 0q0 63 68 76h115v1224q-106 0 -115 3q-68 12 -68 75q0 76 80 76h361q78 0 78 -76q0 -63 -66 -75q-8 -2 -115 -3v-1224h115q66 -12 66 -76q0 -76 -78 -76h-361q-80 0 -80 76z" />
<glyph unicode="J" horiz-adv-x="1017" d="M10 246q0 74 43 133t115 59q51 0 92 -24q49 -29 49 -76q0 -68 -71 -68q-10 0 -31 7.5t-29 7.5q-10 0 -10 -54q0 -14 14 -45q57 -123 219 -123q109 0 174 95q59 82 60 196v946h-37q-25 -2 -41 -2q-115 0 -115 80q0 76 78 76h340q78 0 78 -76q0 -57 -51 -71q-18 -7 -96 -7 v-946q0 -184 -107 -309q-113 -135 -293 -135q-143 0 -258 94q-123 98 -123 242z" />
<glyph unicode="K" horiz-adv-x="1308" d="M20 1378q0 76 78 76h289q78 0 78 -76q0 -57 -49 -71q-20 -6 -94 -7v-495l497 500q-51 16 -51 71q0 78 80 78h262q78 0 78 -76q0 -57 -55 -71q-18 -6 -101 -9l-461 -462l519 -760q92 0 106 -2q59 -14 59 -74q0 -76 -79 -76h-267q-78 0 -78 76q0 70 72 76l-444 649 l-137 -141v-508q80 0 98 -4q51 -14 51 -72q0 -76 -78 -76h-287q-77 0 -77 74q0 57 45 72q23 6 90 6v1224q-74 0 -94 7q-49 14 -50 71z" />
<glyph unicode="L" horiz-adv-x="1249" d="M20 -2q0 53 46 70q20 6 90 8v1227q-68 0 -88 6q-45 16 -45 69q0 74 75 74h324q74 0 74 -74q0 -78 -109 -78q-14 0 -41 3h-37v-1229h674l37 186q10 59 72 59q75 0 75 -67q0 -35 -20.5 -138.5t-32.5 -142.5q-14 -45 -72 -45h-946q-76 0 -76 72z" />
<glyph unicode="M" horiz-adv-x="1685" d="M20 0q0 53 46 70q23 6 88 6v1222q-66 0 -88 9q-43 14 -43 69q0 80 120 80q18 0 49 -2t41 -2q49 0 74 -51l510 -1010l510 1008q27 53 74 53h133q78 0 78 -76q0 -55 -43 -69q-22 -9 -88 -9v-1222q63 0 86 -8q43 -14 43 -68q0 -76 -78 -76h-277q-79 0 -79 74q0 59 51 74 q20 4 96 4v973l-436 -863q-20 -43 -70 -43q-49 0 -69 43l-437 863v-973q76 0 97 -4q51 -14 51 -72q0 -76 -80 -76h-281q-78 0 -78 76z" />
<glyph unicode="N" horiz-adv-x="1423" d="M20 1378q0 80 119 80q18 0 49 -2t41 -2q33 0 50 -16q2 -2 26 -41l748 -1139v1042q-72 0 -95 7q-47 16 -47 71q0 76 78 76h277q77 0 77 -74q0 -57 -45 -71q-23 -8 -90 -9v-1300q0 -33 -24.5 -53.5t-57.5 -20.5q-41 0 -61 31l-760 1157v-1038q82 0 101 -4q53 -14 53 -72 q0 -76 -78 -76h-275q-77 0 -77 74q0 51 39 68q23 10 82 10v1224q-63 0 -87 9q-43 16 -43 69z" />
<glyph unicode="O" horiz-adv-x="1495" d="M59 692q0 309 179 539q193 252 491 252q299 0 492 -252q176 -230 176 -539q0 -307 -176 -538q-193 -250 -492 -250t-491 250q-178 231 -179 538zM217 692q0 -238 133 -426q150 -211 379 -211t377 211q135 188 135 426t-135 426q-150 211 -377 211q-229 0 -377 -211 q-135 -188 -135 -426z" />
<glyph unicode="P" horiz-adv-x="1253" d="M20 -8q0 55 48 69q20 6 92 7v1228q-63 0 -86 9q-43 16 -43 69q0 76 78 76h530q205 0 359.5 -135t154.5 -340q0 -193 -168 -336q-160 -135 -356 -135h-312v-436h115q66 -14 66 -76q0 -76 -78 -76h-322q-78 0 -78 76zM317 657h312q123 0 244.5 99.5t121.5 218.5 q0 139 -110 233q-104 88 -246 88h-322v-639z" />
<glyph unicode="Q" horiz-adv-x="1574" d="M59 692q0 315 195 547q205 244 514 244q311 0 516 -244q195 -231 195 -547q0 -374 -262 -616q190 -100 190 -314q0 -73 -76 -73h-2q-78 0 -78 73q0 82 -55 134q-31 33 -125 77q-139 -69 -298 -69h-5q-309 0 -514 243q-195 229 -195 545zM225 692q0 -244 148 -432 q158 -205 395 -205q16 0 46 4t44 4q-221 121 -221 295q0 74 78 74t78 -74q0 -92 92 -143q53 -31 174 -59q121 92 188 239q63 141 64 297q0 244 -148 432q-158 205 -395 205q-236 0 -395 -205q-147 -188 -148 -432z" />
<glyph unicode="R" horiz-adv-x="1286" d="M20 1380q0 78 78 78h541q209 0 353.5 -136t144.5 -345q0 -166 -94.5 -291t-254.5 -162q55 -66 117 -243q57 -164 101 -205q10 0 34 2h39q115 0 115 -78q0 -76 -78 -76h-137q-31 0 -49 19q-72 68 -125 174q-41 106 -82 211q-55 131 -129 168q-29 14 -37 14q-84 0 -248 2 v-436q88 0 105 -2q57 -14 57 -74q0 -76 -78 -76h-291q-77 0 -77 74q0 55 43 70q23 8 86 8v1229q-68 0 -88 8q-45 14 -46 67zM309 664h369q141 0 223 90q76 86 76 227q0 147 -95.5 235.5t-242.5 88.5h-330v-641z" />
<glyph unicode="S" horiz-adv-x="1249" d="M74 311q0 57 80 58q66 0 77 -50q2 -8 2 -104q147 -166 342 -166q137 0 261.5 102.5t124.5 239.5q0 143 -125 230q-102 70 -256 86q-174 18 -293 129q-129 119 -129 288q0 170 145 281q131 100 307 100q170 0 312 -112q16 14 41 14q82 0 81 -80v-201q0 -61 -77 -61 q-61 0 -76 45q-6 18 -6 98q-119 141 -273 142q-113 0 -198 -60q-96 -68 -97 -176q0 -109 84 -178q78 -63 191 -74q219 -20 362 -137q160 -133 160 -344q0 -209 -168 -348q-160 -135 -371 -135q-190 0 -356 122q-12 -26 -61 -26h-4q-78 0 -78 76z" />
<glyph unicode="T" horiz-adv-x="1249" d="M18 1149q0 8 56 315q10 63 76 64q53 0 69 -45h760q23 47 76 47q70 0 73 -72q20 -303 21 -307q0 -74 -78 -74q-70 0 -76 70l-14 180h-315v-1249q10 0 34 2h37q111 0 111 -80q0 -78 -76 -78h-375q-78 0 -78 78q0 80 113 80h39q25 -2 35 -2v1249h-301l-33 -186 q-10 -63 -74 -64q-80 0 -80 72z" />
<glyph unicode="U" horiz-adv-x="1482" d="M20 1405q0 78 80 78h271q80 0 80 -78q0 -59 -58 -74q-16 -4 -104 -4v-870q0 -168 129 -281q122 -110 290 -110h3q170 0 296 111.5t126 279.5v870q-98 0 -111 2q-63 14 -64 76q0 78 80 78h269q79 0 79 -76q0 -80 -94 -80v-870q0 -233 -173 -390t-408 -157q-236 0 -406 153 q-176 160 -176 394v870q-109 0 -109 78z" />
<glyph unicode="V" horiz-adv-x="1419" d="M4 1405q0 78 80 78h285q80 0 80 -78q0 -53 -46 -70q-23 -8 -88 -8l375 -1077l375 1077q-66 0 -88 8q-43 16 -43 70q0 78 80 78h284q80 0 80 -78q0 -57 -49 -72q-20 -6 -94 -6l-469 -1345q-18 -51 -76 -52q-57 0 -76 52l-469 1345q-72 0 -94 6q-47 16 -47 72z" />
<glyph unicode="W" horiz-adv-x="1925" d="M4 1405q0 78 80 78h287q80 0 80 -78q0 -55 -48 -72q-23 -6 -92 -6l244 -1028l313 995q16 51 76 52q59 0 76 -52l313 -997l246 1030q-72 0 -94 6q-47 16 -47 72q0 78 80 78h286q80 0 80 -78q0 -55 -47 -72q-22 -6 -94 -6l-322 -1345q-12 -55 -78 -56q-59 0 -75 51 l-324 1033l-323 -1033q-16 -51 -76 -51q-66 0 -78 56l-322 1345q-72 0 -94 6q-47 16 -47 72z" />
<glyph unicode="X" horiz-adv-x="1361" d="M4 0q0 61 62 76q14 2 110 2l395 622l-399 627q-92 0 -109 4q-59 12 -59 74q0 78 80 78h285q80 0 80 -76q0 -80 -89 -80l304 -477l303 477q-88 0 -88 80q0 76 79 76h283q80 0 80 -78q0 -61 -59 -74q-14 -4 -107 -4l-397 -627l397 -622q92 0 107 -4q59 -12 59 -74 q0 -78 -80 -78h-283q-79 0 -79 76q0 80 88 80l-301 473l-301 -473q84 0 84 -78t-80 -78h-285q-80 0 -80 78z" />
<glyph unicode="Y" horiz-adv-x="1308" d="M4 1405q0 78 80 78h285q80 0 80 -78t-103 -78l291 -534l291 534q-104 0 -105 78q0 78 80 78h285q80 0 80 -78q0 -59 -58 -74q-16 -4 -102 -4l-389 -709v-540q109 0 117 -2q67 -12 67 -74q0 -80 -80 -80h-368q-80 0 -80 78q0 63 67 76q8 2 117 2v528l-393 721 q-88 0 -105 4q-57 14 -57 74z" />
<glyph unicode="Z" horiz-adv-x="1320" d="M41 6q0 25 10 39l875 1270l-658 -2l-22 -152q-10 -65 -74 -65h-2q-78 0 -78 71q0 6 37 295q8 66 78 66q68 -1 78 -60h784q35 0 55.5 -32.5t20.5 -67.5q0 -14 -4 -20l-873 -1268h750l33 158q12 57 73 57q78 0 78 -70q0 -37 -18 -116q-12 -61 -25.5 -123t-77.5 -62h-970 q-70 0 -70 82z" />
<glyph unicode="[" horiz-adv-x="528" d="M106 74v1290q0 113 52 190q59 90 168 91q88 0 88 -84q0 -74 -88 -74q-45 0 -56 -41q-4 -12 -4 -82v-1309q0 -57 15 -78q18 -27 77.5 -26.5t59.5 -61.5q0 -96 -123 -96q-188 0 -189 281z" />
<glyph unicode="\" horiz-adv-x="950" d="M14 1391q0 33 27 55t59 22q45 0 68 -43l727 -1388q10 -18 10 -37q0 -33 -26.5 -56.5t-59.5 -23.5q-45 0 -67 43l-727 1391q-11 19 -11 37z" />
<glyph unicode="]" horiz-adv-x="544" d="M74 -119q0 45 32 62q16 6 46.5 7t44.5 5q35 12 34 72l-4 1337q0 80 -4 90q-10 29 -69 33q-78 6 -78 74q0 90 135 90q176 0 176 -287v-1290q0 -279 -227 -279q-37 0 -61.5 25.5t-24.5 60.5z" />
<glyph unicode="^" horiz-adv-x="768" d="M141 1311q0 25 17 47l157 211q29 37 66 37t63 -37l154 -211q16 -23 16 -45q0 -33 -26.5 -56.5t-59.5 -23.5q-37 0 -61 33l-90 125l-92 -125q-25 -33 -62 -33q-33 0 -57.5 23.5t-24.5 54.5z" />
<glyph unicode="_" horiz-adv-x="1480" d="M-45 -260q0 78 80 78h1388q80 0 80 -78q0 -80 -80 -80h-1388q-80 0 -80 80z" />
<glyph unicode="`" horiz-adv-x="438" d="M14 1536q0 33 24.5 55.5t57.5 22.5q39 0 64 -35l166 -240q14 -22 14 -45q0 -33 -24.5 -55t-57.5 -22q-39 0 -63 34l-166 240q-14 23 -15 45z" />
<glyph unicode="a" horiz-adv-x="1085" d="M57 199q0 199 170 303q141 86 353 86q57 0 127 -6q-12 158 -84 186q-98 39 -160 39q-74 0 -111 -37q-6 -4 -47 -65q-23 -37 -59 -37q-33 0 -58.5 21.5t-25.5 53.5q0 14 6 31q76 193 295 193q121 0 227.5 -55.5t145.5 -163.5q30 -78 30 -209v-9v-452q70 0 92 -6 q47 -16 48 -72q0 -78 -80 -78h-140q-70 0 -84 82q-109 -104 -272 -104q-152 0 -256 73q-117 82 -117 226zM215 197q0 -141 221 -142q255 0 269 369q-45 8 -101 8q-389 0 -389 -235z" />
<glyph unicode="b" horiz-adv-x="1181" d="M23 1395q0 78 79 78h140q80 0 80 -78v-533q119 96 276 96q217 0 344 -161q117 -150 117 -371q0 -215 -123 -360q-131 -152 -342 -152q-162 0 -272 96v-8q0 -82 -80 -82h-121q-80 0 -80 78t121 78v1241q-70 0 -92 6q-47 16 -47 72zM324 428q0 -150 61 -248 q72 -119 213 -119q139 0 225 117q76 104 76 248q0 154 -70 258q-80 121 -225 121q-123 0 -201.5 -84t-78.5 -205v-88z" />
<glyph unicode="c" horiz-adv-x="980" d="M53 410q0 217 113 370q125 172 334 172q127 0 221 -71q14 14 49 14q78 0 78 -78v-233q0 -59 -80 -60q-82 0 -82 94v39q2 27 2 39q-20 45 -86 74q-55 25 -113 25q-145 0 -217 -125q-59 -102 -59 -260q0 -135 70 -238q82 -119 209 -119q94 0 180 82t108 82q33 0 59.5 -23.5 t26.5 -56.5q0 -20 -16 -45q-132 -196 -342 -196h-2q-193 0 -326 163q-127 154 -127 351z" />
<glyph unicode="d" horiz-adv-x="1163" d="M59 426q0 236 121 379q128 153 356 153h3q197 0 260 -90v449q-74 0 -97 6q-49 14 -49 72q0 78 80 78h146q80 0 79 -78v-1317q76 0 97 -6q51 -16 51 -74q0 -74 -77 -76t-148 -2q-79 0 -79 80q0 7 1 16q-115 -102 -279 -102q-207 0 -340 154q-125 145 -125 358zM219 426 q0 -143 80 -248q86 -115 225 -115q102 0 181 76q72 72 92 176q2 11 2 201q0 123 -81 208t-202 85q-147 0 -227 -123q-70 -106 -70 -260z" />
<glyph unicode="e" horiz-adv-x="1079" d="M51 449v6q0 189 123 342q133 166 322 166q156 0 301 -140.5t145 -294.5q0 -102 -96 -141h-631q14 -129 78 -221q78 -115 194 -115q84 0 178.5 72t112.5 72q33 0 57.5 -24t24.5 -56q0 -27 -22 -54q-144 -163 -338 -163h-2q-182 0 -316 153q-127 147 -129 334zM225 545h531 q0 100 -85 181t-188 81q-98 0 -172 -84q-61 -72 -86 -178z" />
<glyph unicode="f" horiz-adv-x="811" d="M43 850q0 57 47 72q22 8 92 8v172q0 152 90 256q93 112 239 112h3q72 0 156 -43q96 -49 96 -112q0 -31 -24.5 -54.5t-57.5 -23.5q-25 0 -76 40t-106 40q-82 0 -123 -70q-37 -59 -37 -145v-172h225q80 0 80 -80q0 -78 -80 -78h-225v-694q109 0 117 -2q67 -12 67 -74 q0 -80 -80 -80h-321q-80 0 -80 78q0 55 47 70q20 8 90 8v694q-70 0 -92 8q-47 14 -47 70z" />
<glyph unicode="g" horiz-adv-x="1167" d="M63 399q0 225 111 375q123 164 340 164q166 0 287 -100q0 92 80 92h139q80 0 80 -80q0 -55 -47 -70q-23 -8 -92 -8l2 -891q0 -63 -35 -139q-119 -256 -455 -256q-235 0 -235 89q0 36 23.5 58.5t55.5 22.5q25 0 75 -4t75 -4q258 0 313 151q4 35 21 103v80 q-117 -94 -271 -95q-207 0 -340 154q-127 147 -127 358zM223 399q0 -143 78 -247q86 -113 225 -113q276 0 277 407q0 143 -74 238q-80 104 -223 104q-145 0 -219 -126q-63 -106 -64 -263z" />
<glyph unicode="h" horiz-adv-x="1116" d="M70 72q23 6 92 6v1239q-70 0 -92 6q-47 16 -47 72q0 78 79 78h140q80 0 80 -78v-578q37 53 108.5 93t134.5 40q137 0 251 -119.5t114 -257.5v-495q72 0 92 -6q49 -16 49 -72q0 -78 -80 -78h-280q-80 0 -80 78q0 55 47 72q23 6 92 6v495q0 14 -16 56q-68 162 -193 162 q-240 0 -239 -293v-420q72 0 94 -6q47 -16 47 -72q0 -78 -80 -78h-281q-79 0 -79 76q0 57 47 74z" />
<glyph unicode="i" horiz-adv-x="681" d="M111 850q0 80 79 80h160q80 0 80 -78v-774q80 0 98 -6q53 -14 54 -72q0 -78 -80 -78h-303q-80 0 -80 78q0 57 53 72q18 6 98 6v694q-86 0 -104 4q-55 14 -55 74zM270 1278v74q0 75 78 75h2h2q78 0 78 -75v-74q0 -78 -80 -78t-80 78z" />
<glyph unicode="j" horiz-adv-x="632" d="M0 -408q0 70 59 70q10 0 32 -7t34 -7q117 0 117 311v813q-92 0 -109 4q-59 12 -59 74q0 80 80 80h168q80 0 79 -78v-885q0 -217 -45 -317q-68 -152 -260 -152q-96 0 -96 94zM260 1278v74q0 75 78 75h2h2q78 0 78 -75v-74q0 -78 -80 -78t-80 78z" />
<glyph unicode="k" horiz-adv-x="1126" d="M29 0q0 55 47 72q23 6 94 6v1239q-72 0 -94 6q-47 16 -47 72q0 78 80 78h141q80 0 80 -78v-942l282 321q-67 10 -67 78q0 78 84 78h278q78 0 78 -78q0 -63 -59 -76q-14 -4 -109 -4l-223 -248l276 -446q104 0 115 -2q66 -12 66 -76q0 -78 -80 -78h-281q-80 0 -80 80 q0 76 74 76l-199 325l-155 -172v-153q70 0 92 -6q47 -16 47 -72q0 -78 -80 -78h-280q-80 0 -80 78z" />
<glyph unicode="l" horiz-adv-x="669" d="M74 0q0 59 57 74q16 4 105 4v1239q-88 0 -105 4q-57 14 -57 74q0 78 80 78h161q80 0 80 -78v-1317q84 0 103 -4q55 -14 55 -74q0 -78 -80 -78h-319q-80 0 -80 78z" />
<glyph unicode="m" horiz-adv-x="1568" d="M18 850q0 84 125 84q18 0 51 -2t44 -2q68 0 67 -94q105 112 215 112h2q164 0 260 -151q106 147 265 147q154 0 245 -113q86 -104 86 -262v-491q70 0 90 -8q47 -14 48 -70q0 -78 -80 -78h-281q-80 0 -80 78q0 57 49 72q20 6 95 6v491q0 80 -48 146q-52 71 -127 71h-2 q-25 -4 -71 -22q-49 -31 -87 -116t-38 -146v-424q74 0 96 -6q49 -14 49 -72q0 -78 -80 -78h-278q-80 0 -80 78q0 53 45 70q23 8 88 8v491q0 86 -43 150q-49 74 -129 74q-25 -2 -72 -17q-59 -31 -94 -131q-31 -84 -31 -162v-405q80 0 99 -6q53 -14 53 -72q0 -78 -80 -78h-280 q-80 0 -80 78q0 53 43 70q23 8 86 8v694q-70 0 -92 8q-47 14 -48 70z" />
<glyph unicode="n" horiz-adv-x="1116" d="M43 850q0 80 80 80h139q80 0 80 -72q40 38 102 66q58 27 106 26h7h6q178 -6 279 -129q94 -117 94 -301v-442q70 0 92 -6q47 -16 47 -72q0 -78 -80 -78h-280q-80 0 -80 78q0 55 47 72q23 6 94 6v473q0 88 -62.5 165t-148.5 77q-117 0 -176 -121q-47 -94 -47 -226v-368 q78 0 98 -6q51 -14 52 -72q0 -78 -80 -78h-281q-80 0 -80 78q0 53 43 70q25 8 88 8v694q-70 0 -92 8q-47 14 -47 70z" />
<glyph unicode="o" horiz-adv-x="1073" d="M45 426q0 217 115 365q126 161 335 161h3q211 0 338 -161q114 -146 114 -361q0 -219 -114 -367q-127 -161 -338 -161t-338 161q-115 147 -115 363zM211 426q0 -145 68 -248q80 -121 219 -121t217 121q69 101 69 244q0 151 -69 254q-78 121 -217 121t-219 -121 q-68 -102 -68 -250z" />
<glyph unicode="p" horiz-adv-x="1173" d="M18 850q0 80 80 80h140q74 0 79 -70q106 98 263 98q203 0 340 -145q131 -143 131 -348q0 -219 -117 -383q-131 -180 -340 -180q-160 0 -277 110v-360q78 0 99 -6q51 -14 51 -72q0 -78 -80 -78h-281q-79 0 -79 76q0 55 43 72q25 8 88 8v1120q-70 0 -92 8q-47 14 -48 70z M319 481q0 -86 9 -129q25 -115 96 -207q84 -108 188 -108q125 0 205 141q66 119 66 252q0 147 -72 256q-82 123 -221 123q-121 0 -199 -107q-72 -96 -72 -221z" />
<glyph unicode="q" horiz-adv-x="1097" d="M61 367q0 229 97 385q113 184 327 184q154 0 275 -100v8v7q0 77 80 77q82 0 82 -78v-1200q70 0 92 -6q47 -16 47 -72q0 -78 -80 -78h-279q-79 0 -79 76q0 57 47 74q23 6 92 6v366q-119 -106 -299 -106q-193 0 -301 133q-101 123 -101 324zM221 371q0 -129 55 -213 q63 -100 185 -101q145 0 227 119q70 104 70 256q0 131 -74 238q-82 116 -209 116q-137 0 -205 -147q-49 -113 -49 -268z" />
<glyph unicode="r" horiz-adv-x="978" d="M61 850q0 80 80 80h140q78 0 78 -64q0 -7 -1 -14q96 94 215 94q98 0 203 -78t105 -168q0 -33 -25 -56t-57 -23q-37 0 -64 43q-47 74 -55 81q-41 43 -113 43q-96 0 -153 -79q-53 -72 -54 -170v-461q102 0 113 -2q66 -12 66 -76q0 -78 -80 -78h-312q-79 0 -79 76 q0 55 45 72q23 8 88 8v694q-70 0 -92 8q-47 14 -48 70z" />
<glyph unicode="s" horiz-adv-x="989" d="M61 -2v221q0 61 78 62q63 0 78 -43q4 -11 4 -43q0 -21 -2 -52q102 -86 297 -86q88 0 148 31q77 39 77 117q0 141 -305 190q-123 20 -219 88q-115 82 -115 195q0 117 109 201q101 75 218 75h3q123 0 236 -63q8 33 63 33q80 0 80 -80v-199q0 -59 -80 -59q-59 0 -74 39 q-6 16 -6 90q-84 86 -223 86q-63 0 -110.5 -36t-47.5 -99q0 -84 191 -115q160 -27 282 -107q154 -100 154 -239q0 -143 -127 -228q-110 -73 -256 -73h-4q-152 0 -295 67q-12 -51 -78 -51q-76 0 -76 78z" />
<glyph unicode="t" horiz-adv-x="745" d="M35 850q0 63 61 78q15 2 111 2v235q0 78 80 78t80 -78v-235h170q79 0 79 -78q0 -80 -79 -80h-170v-498q0 -204 124 -204h1q10 0 30.5 5t32.5 5q33 0 54.5 -24.5t21.5 -59.5q0 -84 -152 -84q-137 0 -211 117q-61 100 -61 245v498q-96 0 -111 2q-61 14 -61 76z" />
<glyph unicode="u" horiz-adv-x="1130" d="M14 848q0 80 80 80h139q80 0 80 -78v-461q0 -125 41 -211q53 -110 164 -110h2q150 0 203 106q39 76 39 242v354q-70 0 -92 8q-45 14 -45 70q0 80 80 80h137q80 0 80 -78l2 -772q72 0 92 -6q49 -16 49 -72q0 -78 -80 -78h-139q-80 0 -80 68q-94 -78 -246 -78 q-174 0 -276 158q-90 135 -90 319v381q-70 0 -93 8q-47 14 -47 70z" />
<glyph unicode="v" horiz-adv-x="1110" d="M-4 850q0 80 80 80h280q80 0 80 -80q0 -53 -43 -70q-23 -8 -86 -8l213 -553l213 553q-61 0 -86 10q-41 16 -41 68q0 80 80 80h281q80 0 80 -80q0 -55 -50 -72q-20 -6 -94 -6l-309 -801q-18 -49 -74 -49q-55 0 -74 49l-309 801q-72 0 -94 6q-47 16 -47 72z" />
<glyph unicode="w" horiz-adv-x="1478" d="M0 852q0 78 80 78l287 -2q79 0 79 -78q0 -59 -51 -74q-20 -6 -96 -6l135 -543l199 387q23 45 72 45t71 -45l205 -389l131 547q-76 0 -96 6q-49 14 -49 72q0 80 80 80h280q80 0 80 -80q0 -53 -43 -70q-23 -8 -86 -8l-191 -790q-14 -59 -79 -60q-47 0 -70 41l-231 443 l-228 -443q-20 -41 -69 -41q-66 0 -80 60l-195 790q-68 0 -90 8q-45 16 -45 72z" />
<glyph unicode="x" horiz-adv-x="1110" d="M-2 0q0 63 63 76q12 2 113 2l248 338l-262 356q-88 0 -105 4q-57 14 -57 74q0 80 80 80h280q80 0 80 -80q0 -78 -80 -78l164 -221l164 221q-88 0 -88 78q0 80 80 80h280q80 0 80 -80q0 -57 -53 -72q-18 -6 -100 -6l-264 -356l249 -338q92 0 109 -4q59 -12 59 -74 q0 -78 -80 -78h-280q-80 0 -80 80q0 76 74 76l-150 203l-151 -205q67 -8 67 -74q0 -80 -80 -80h-280q-80 0 -80 78z" />
<glyph unicode="y" horiz-adv-x="1177" d="M-37 -397q0 33 20.5 56.5t53.5 23.5q14 0 41.5 -5.5t42.5 -5.5q115 0 213 125q45 59 131 223l-311 752q-80 0 -99 6q-53 14 -53 72q0 80 80 80h280q80 0 80 -80q0 -78 -114 -78l227 -549l236 549q-59 0 -84 10q-39 16 -39 68q0 80 80 80h280q80 0 80 -80q0 -57 -49 -72 q-20 -6 -96 -6l-228 -541q-37 -96 -123 -278q-125 -221 -188 -291q-129 -143 -299 -143q-162 0 -162 84z" />
<glyph unicode="z" horiz-adv-x="1058" d="M59 -2q0 27 21 51l594 717h-436q0 -76 -7 -96q-14 -49 -73 -49h-2q-78 0 -78 77v148q0 78 80 78h684q33 0 57.5 -21.5t24.5 -54.5q0 -29 -21 -53l-594 -717h453q0 74 6 94q16 47 74 47q80 0 80 -78v-141q0 -78 -80 -78h-701q-82 0 -82 76z" />
<glyph unicode="{" horiz-adv-x="548" d="M-6 723q0 31 37 61q80 68 125 131v-2q45 41 45 136q0 43 -9.5 128t-9.5 128q0 223 213 268q45 -49 45 -98q0 -47 -51 -56.5t-51 -79.5q0 -37 6 -112.5t6 -112.5q0 -166 -63 -289v-2q-29 -41 -90 -102q164 -164 163 -451q0 -35 -5 -105.5t-5 -105.5q0 -88 39 -98 q100 -25 100 -92q0 -70 -61 -64h-14q-223 16 -224 279q0 45 8.5 134t8.5 136q0 96 -55 178q-27 39 -103 111q-55 51 -55 80z" />
<glyph unicode="|" horiz-adv-x="542" d="M160 -365v1971q0 78 80 77q79 1 79 -77v-1971q0 -78 -79 -77q-80 0 -80 77z" />
<glyph unicode="}" horiz-adv-x="548" d="M-12 1503q0 72 59 72q109 0 172 -86q57 -75 57 -184q0 -43 -9 -129t-9 -129q0 -78 53 -148q23 -27 103 -98q55 -49 55 -78t-57 -82q-78 -74 -103 -111q-57 -80 -57 -172q0 -41 7 -121.5t7 -121.5q0 -127 -50 -198t-169 -112q-10 -4 -14 -4q-37 0 -37 68q0 76 58.5 87 t58.5 85q0 39 -5.5 117t-5.5 118q0 219 72 334q23 37 92 111q-170 160 -170 455q0 27 2 83t2 84q0 74 -37 74q-76 0 -75 86z" />
<glyph unicode="~" horiz-adv-x="897" d="M-29 1466q0 45 56 62q27 8 102 63q59 43 139 43q31 0 41 -2q98 -27 162 -129q10 -16 14 -16q4 2 7 4q20 -8 94 43q82 55 110 55q37 0 66 -25.5t29 -60.5q0 -45 -54 -59q-27 -8 -100 -62q-59 -45 -139 -45q-27 0 -35 2q-100 27 -160 123q-12 18 -16 19q-4 0 -6 -2 q-27 10 -103 -43q-84 -55 -115 -56q-35 0 -63.5 26t-28.5 60z" />
<glyph unicode="&#xa1;" horiz-adv-x="649" d="M119 1024q0 47 35.5 82t83.5 35q47 0 82.5 -35t35.5 -82t-35.5 -82t-82.5 -35t-83 35t-36 82zM152 -342v948q0 78 79 78q80 0 80 -78v-948q0 -78 -80 -78q-79 0 -79 78z" />
<glyph unicode="&#xa2;" horiz-adv-x="921" d="M53 410q0 221 113 372q125 170 338 170q45 0 88 -10q12 57 22 115q25 68 80 67q33 0 57.5 -20.5t24.5 -52.5q0 -8 -33 -160q12 4 27 4q78 0 78 -78v-233q0 -59 -80 -60q-55 0 -72 31q-8 19 -8 80l-125 -572q55 20 129 93q61 61 88 61q33 0 59.5 -23.5t26.5 -56.5 q0 -23 -16 -45q-125 -180 -322 -194q-12 -57 -22 -115q-23 -68 -80 -68q-33 0 -57.5 21.5t-24.5 54.5q0 8 27 129q-147 53 -234 195q-84 133 -84 295zM213 410q0 -106 47 -197q53 -98 143 -139l156 712q-33 8 -65 9q-145 0 -220 -125q-61 -104 -61 -260z" />
<glyph unicode="&#xa3;" horiz-adv-x="1011" d="M23 176q0 170 149 170q86 0 137 -43q10 186 25 451q-88 0 -105 4q-57 14 -57 73q0 63 64 78q12 2 110 2q8 119 19 240q16 150 67 225q68 98 205 99q98 0 164 -54q74 -59 73 -153q0 -57 -26 -121q-31 -27 -74 -27q-31 0 -59.5 15.5t-28.5 44.5q0 18 18.5 37.5t18.5 37.5 q0 31 -27.5 57.5t-58.5 26.5q-76 0 -109 -182q-23 -117 -22 -246q100 0 112 -2q63 -14 64 -78q0 -63 -66 -75q-10 -2 -114 -2q-8 -209 -15 -283q-14 -160 -47 -276q119 -115 158 -115q23 0 55 16q125 63 146 166q14 68 78 68q35 0 58 -21.5t23 -56.5q0 -119 -115.5 -217 t-238.5 -98q-116 0 -231 100q-66 -92 -137 -92q-82 0 -147.5 73.5t-65.5 157.5zM156 162q0 -29 20.5 -52.5t48.5 -23.5q37 0 64 43q-20 27 -41 55q-31 39 -47 39t-30.5 -21.5t-14.5 -39.5z" />
<glyph unicode="&#xa4;" horiz-adv-x="1095" d="M45 952q0 31 25.5 55.5t58.5 24.5q31 0 74 -39q29 -33 59 -63q119 92 254 92q145 0 270 -102q29 29 56 57q39 35 69 35q33 0 58.5 -24.5t25.5 -55.5t-43 -76q-32 -28 -65 -59q68 -119 67 -262q0 -135 -61 -246q35 -33 70 -68q47 -49 47 -80q0 -33 -26 -56.5t-56 -23.5 q-33 0 -76 39q-31 33 -61 66q-121 -94 -256 -94q-143 0 -265 98q-29 -31 -57 -61q-41 -37 -72 -37q-33 0 -57.5 24.5t-24.5 57.5q0 29 41 73q33 33 66 64q-70 121 -70 266q0 139 64 252q-35 33 -70 63q-45 47 -45 80zM260 561q0 -129 62 -223q70 -109 192 -109l45 -2 q113 0 176 101q55 86 56 204q0 129 -62 224q-70 109 -192 108l-45 2q-113 0 -177 -100q-55 -86 -55 -205z" />
<glyph unicode="&#xa5;" horiz-adv-x="1327" d="M2 1405q0 78 80 78h285q80 0 79 -78q0 -78 -102 -78l291 -534l291 534q-104 0 -105 78q0 78 80 78h285q80 0 80 -78q0 -59 -58 -74q-16 -4 -102 -4l-320 -582q10 0 44 2.5t53 2.5q125 0 125 -84q0 -78 -80 -78h-211v-94h211q80 0 80 -78t-80 -78h-211v-260q109 0 117 -2 q68 -12 67 -76q0 -78 -80 -78h-368q-80 0 -80 78q0 63 67 76q8 2 117 2v260h-192q-80 0 -80 78t80 78h192v94h-192q-80 0 -80 78q0 82 116 82h43q27 -3 37 -3l-317 582q-88 0 -105 4q-57 14 -57 74z" />
<glyph unicode="&#xa6;" horiz-adv-x="772" d="M256 -211v508h117v-508h-117zM256 979v508h117v-508h-117z" />
<glyph unicode="&#xa7;" horiz-adv-x="694" d="M86 1114q0 39 23 88q70 152 340 152q121 0 120 -80q0 -55 -39 -70q-18 -6 -84 -6q-43 0 -110 -16q-92 -20 -92 -54q0 -6 2 -10q-8 -12 -8 -22q0 -27 90 -66q123 -53 168 -88q90 -68 90 -166q0 -94 -80 -219q23 -25 53 -74q35 -57 35 -80q0 -131 -125 -192 q-94 -47 -238 -47q-119 0 -118 78q0 57 41 71q18 6 84 6q53 0 118 17q92 25 78 63q10 12 10 23q0 29 -92 67q-123 51 -166 86q-92 68 -92 164q0 94 80 217q-25 27 -53 76q-35 57 -35 82zM242 764q0 -35 55 -70q43 -20 86 -43q55 66 55 103q0 35 -55 67q-43 20 -86 43 q-55 -63 -55 -100z" />
<glyph unicode="&#xa8;" horiz-adv-x="847" d="M127 1071q0 55 40 94t93 39q55 0 91 -38t36 -93q0 -53 -37 -92t-90 -39q-55 0 -94 38t-39 91zM455 1071q0 55 40 94t93 39q55 0 91 -38t36 -93q0 -53 -37 -92t-90 -39q-55 0 -94 38t-39 91z" />
<glyph unicode="&#xaa;" horiz-adv-x="1241" d="M92 422q0 33 25.5 55.5t58.5 22.5q43 0 66 -41l151 -266q49 109 160 419q88 242 166 379q113 199 289 361q25 23 53 22q33 0 57.5 -24.5t24.5 -55.5q0 -29 -25 -55q-49 -49 -141 -152q-133 -164 -225 -395l-156 -426q-74 -184 -127 -282q-25 -45 -70 -45q-47 0 -71 43 q-66 113 -131 227q-104 186 -105 213z" />
<glyph unicode="&#xab;" horiz-adv-x="1138" d="M66 549q0 23 24 51l371 428q25 29 57 29q33 0 59.5 -24.5t26.5 -55.5q0 -27 -20 -49l-328 -377l328 -377q20 -23 20 -49q0 -31 -26.5 -55.5t-57.5 -24.5q-35 0 -59 29l-371 426q-24 29 -24 49zM435 549q0 23 24 51l371 428q25 29 57 29q33 0 59.5 -24.5t26.5 -55.5 q0 -27 -20 -49l-328 -377l328 -377q20 -23 20 -49q0 -31 -26.5 -55.5t-57.5 -24.5q-35 0 -59 29l-371 426q-24 29 -24 49z" />
<glyph unicode="&#xac;" horiz-adv-x="1124" d="M10 803q0 78 80 78h813q80 0 80 -78v-342q0 -78 -80 -78t-80 78v264h-733q-80 0 -80 78z" />
<glyph unicode="&#xad;" horiz-adv-x="903" d="M55 481q0 78 80 78h572q78 0 77 -78q0 -76 -77 -75h-572q-80 0 -80 75z" />
<glyph unicode="&#xaf;" horiz-adv-x="587" d="M55 1384q0 78 80 78h193q80 0 80 -78t-80 -77h-193q-80 0 -80 77z" />
<glyph unicode="&#xb0;" horiz-adv-x="718" d="M20 1223q0 84 60.5 144t144.5 60t146.5 -58t62.5 -142q0 -82 -60.5 -142.5t-142.5 -60.5q-84 0 -147.5 57.5t-63.5 141.5zM109 1217q0 -49 38.5 -82t90.5 -33q51 0 83.5 38t32.5 89q0 49 -39 81.5t-90 32.5q-49 0 -82.5 -38.5t-33.5 -87.5z" />
<glyph unicode="&#xb1;" horiz-adv-x="841" d="M13 608q0 78 77 78h201v277q0 78 78 78q80 0 80 -78v-277h198q78 0 78 -78t-78 -77h-198v-252q0 -78 -80 -78q-78 0 -78 78v252h-201q-78 0 -77 77zM24 -21q0 78 80 78h572q78 0 77 -78q0 -76 -77 -75h-572q-80 0 -80 75z" />
<glyph unicode="&#xb2;" horiz-adv-x="727" d="M41 760q0 90 256 321q31 23 82 70q127 143 127 252q0 66 -55 102q-49 31 -119 31q-135 0 -170 -127q-12 -37 -45 -37q-51 0 -51 47q0 90 92 154q82 57 174 57q109 0 184 -57q84 -63 84 -166q0 -115 -78 -227q-53 -76 -176 -191q-137 -127 -176 -172h348q0 47 4 57 q8 33 45 33q41 0 49 -53q-2 10 -2 -84q0 -47 -47 -47h-477q-49 0 -49 37z" />
<glyph unicode="&#xb3;" horiz-adv-x="763" d="M76 881q0 49 49 49q6 0 85 -48t140 -48q84 0 142 69q53 63 53 150q0 20 -13 69q-16 68 -65 88q-33 16 -115 15h-35q-51 0 -51 49q0 16 15 33q117 123 178 245h-256q0 -47 -4 -59q-8 -31 -45 -31q-41 0 -50 51q2 -7 2 89q0 45 48 45h378q49 0 50 -41q0 -37 -68 -150 q-55 -90 -92 -137q104 -14 160.5 -85t56.5 -177q0 -123 -89 -220.5t-210 -97.5q-137 0 -246 107q-18 16 -18 35z" />
<glyph unicode="&#xb4;" horiz-adv-x="641" d="M160 1294q0 25 16 47l176 240q25 33 62 33q33 0 59.5 -23.5t26.5 -56.5q0 -23 -17 -45l-176 -240q-24 -35 -63 -35q-33 0 -58.5 24t-25.5 56z" />
<glyph unicode="&#xb5;" horiz-adv-x="1007" d="M27 -96q0 14 30 59q43 63 43 209q0 37 -8 109.5t-8 107.5v461q0 76 80 76t80 -76v-483q0 -301 215 -301q121 0 162 124q27 76 26 226v434q0 76 80 76t80 -76q0 -88 -2 -262v-264q0 -231 63 -256q68 0 68 -66q0 -37 -26.5 -63.5t-65.5 -26.5q-102 0 -162 94 q-94 -94 -254 -94q-106 0 -197 78q-37 -141 -174 -183q-2 16 -16 51.5t-14 45.5z" />
<glyph unicode="&#xb6;" horiz-adv-x="1075" d="M31 1059q0 166 75 276q88 127 248 127h496q74 0 74 -71q0 -41 -32 -63.5t-75 -20.5v-1307q0 -78 -80 -78t-80 78v1307h-110v-1307q0 -78 -80 -78t-80 78v688q-129 20 -240 131q-117 115 -116 240zM190 1077q0 -80 59.5 -151.5t137.5 -87.5v469h-16q-84 4 -135 -74 q-45 -68 -46 -156z" />
<glyph unicode="&#xb7;" horiz-adv-x="786" d="M178 807q0 57 37 93t92 36t90 -35.5t35 -93.5q0 -55 -35 -91t-90 -36t-92 36t-37 91z" />
<glyph unicode="&#xb9;" horiz-adv-x="702" d="M158 780q0 39 41 45q3 2 71 2v662q-45 -37 -61 -37q-49 0 -49 47q0 20 16 35l109 92q14 12 32 12q47 0 48 -45v-766q74 0 73 0q45 -8 45 -47q0 -47 -47 -47h-231q-47 0 -47 47z" />
<glyph unicode="&#xbb;" horiz-adv-x="1271" d="M193 125q0 27 20 49l326 377l-326 377q-18 23 -18 47q0 33 25.5 56.5t58.5 23.5t57 -27l369 -428q25 -29 24 -51q0 -20 -24 -49l-369 -426q-25 -29 -60 -29q-31 0 -57 24.5t-26 55.5zM551 94q0 27 20 49l326 377l-326 377q-18 23 -18 47q0 33 25.5 56.5t58.5 23.5t57 -27 l369 -428q25 -29 24 -51q0 -20 -24 -49l-369 -426q-25 -29 -60 -29q-31 0 -57 24.5t-26 55.5z" />
<glyph unicode="&#xbc;" horiz-adv-x="1316" d="M115 764q0 39 41 45q3 2 71 2v662q-45 -37 -61 -37q-49 0 -49 47q0 20 16 35l109 92q14 12 32 12q47 0 48 -45v-766q74 0 73 0q45 -8 45 -47q0 -47 -47 -47h-231q-47 0 -47 47zM254 68q0 20 10 41l686 1388q23 47 66 47q63 0 63 -63q0 -20 -10 -41l-686 -1389 q-23 -47 -66 -47q-63 0 -63 64zM727 244q0 14 8 28l408 600q12 18 37 19q51 0 51 -45v-553q47 0 59 -2q31 -10 31 -45t-31 -43q-12 -4 -59 -4v-127q43 0 57 -4q29 -8 29 -43q0 -47 -47 -48h-174q-47 0 -47 48q0 47 86 47v127h-359q-49 0 -49 45zM864 293h271v397z" />
<glyph unicode="&#xbd;" horiz-adv-x="1316" d="M82 793q0 39 41 45q4 2 72 2v661q-45 -37 -62 -37q-49 0 -49 47q0 20 16 35l109 92q14 12 33 13q47 0 47 -45v-766q74 0 73 0q45 -8 46 -47q0 -47 -48 -48h-231q-47 0 -47 48zM156 80q0 20 10 41l686 1388q23 47 66 47q63 0 63 -63q0 -20 -10 -41l-686 -1389 q-23 -47 -66 -47q-63 0 -63 64zM731 16q0 92 256 322q31 23 82 70q127 143 127 251q0 66 -55 103q-49 31 -119 31q-135 0 -170 -127q-12 -37 -45 -37q-51 0 -51 47q0 90 92 153q82 58 174 58q109 0 184 -58q84 -63 84 -165q0 -115 -78 -228q-53 -76 -176 -190 q-137 -127 -176 -172h348q0 47 4 59q8 31 45 31q41 0 50 -53q-2 10 -2 -84q0 -47 -48 -47h-477q-49 0 -49 36z" />
<glyph unicode="&#xbe;" horiz-adv-x="1277" d="M35 879q0 49 49 49q6 0 85 -48.5t140 -48.5q84 0 142 70q53 63 53 150q0 20 -12 69q-16 68 -66 88q-33 16 -115 15h-35q-51 0 -51 49q0 16 15 33q117 123 178 245h-256q0 -47 -4 -59q-8 -31 -45 -31q-41 0 -50 51q3 -8 3 88q0 45 47 46h379q49 0 49 -41q0 -37 -68 -150 q-55 -90 -92 -137q104 -14 160.5 -85t56.5 -177q0 -123 -89 -220.5t-210 -97.5q-137 0 -246 107q-18 16 -18 35zM291 68q0 20 10 41l686 1388q23 47 66 47q63 0 63 -63q0 -20 -10 -41l-686 -1389q-23 -47 -66 -47q-63 0 -63 64zM727 244q0 14 8 28l408 600q12 18 37 19 q51 0 51 -45v-553q47 0 59 -2q31 -10 31 -45t-31 -43q-12 -4 -59 -4v-127q43 0 57 -4q29 -8 29 -43q0 -47 -47 -48h-174q-47 0 -47 48q0 47 86 47v127h-359q-49 0 -49 45zM864 293h271v397z" />
<glyph unicode="&#xbf;" horiz-adv-x="903" d="M27 -45q0 193 109.5 312.5t299.5 135.5v205q0 78 80 78t80 -78v-280q0 -72 -107 -80q-152 -14 -196 -43q-106 -63 -107 -266q0 -94 45 -156q51 -68 142 -68q143 0 143 131q0 78 82 78q78 0 78 -78q0 -125 -85 -204.5t-208 -79.5q-162 0 -259 114.5t-97 278.5zM377 975 q0 47 36 82t83 35t82.5 -35t35.5 -82t-35.5 -82t-82.5 -35t-83 35t-36 82z" />
<glyph unicode="&#xc0;" horiz-adv-x="1484" d="M-10 0q0 53 45 70q23 6 88 6l459 1224q-61 0 -84 11q-41 14 -41 67q0 76 78 76h157q76 0 76 -61l504 -1317q72 0 92 -6q49 -14 49 -70q0 -76 -78 -76h-274q-80 0 -80 76q0 49 39 66q25 10 82 10l-117 307h-582l-114 -307q63 0 86 -8q43 -14 43 -68q0 -76 -78 -76h-272 q-78 0 -78 76zM436 1815q0 33 24.5 55.5t57.5 22.5q39 0 64 -35l166 -240q14 -22 14 -45q0 -33 -24.5 -55t-57.5 -22q-39 0 -63 34l-166 240q-14 23 -15 45zM461 539h465l-234 610z" />
<glyph unicode="&#xc1;" horiz-adv-x="1484" d="M-10 0q0 53 45 70q23 6 88 6l459 1224q-61 0 -84 11q-41 14 -41 67q0 76 78 76h157q76 0 76 -61l504 -1317q72 0 92 -6q49 -14 49 -70q0 -76 -78 -76h-274q-80 0 -80 76q0 49 39 66q25 10 82 10l-117 307h-582l-114 -307q63 0 86 -8q43 -14 43 -68q0 -76 -78 -76h-272 q-78 0 -78 76zM312 1507q0 25 16 47l176 240q25 33 62 33q33 0 59.5 -23.5t26.5 -56.5q0 -23 -17 -45l-176 -240q-24 -35 -63 -35q-33 0 -58.5 24t-25.5 56zM461 539h465l-234 610z" />
<glyph unicode="&#xc2;" horiz-adv-x="1484" d="M-10 0q0 53 45 70q23 6 88 6l459 1224q-61 0 -84 11q-41 14 -41 67q0 76 78 76h157q76 0 76 -61l504 -1317q72 0 92 -6q49 -14 49 -70q0 -76 -78 -76h-274q-80 0 -80 76q0 49 39 66q25 10 82 10l-117 307h-582l-114 -307q63 0 86 -8q43 -14 43 -68q0 -76 -78 -76h-272 q-78 0 -78 76zM409 1571q0 25 17 47l157 211q29 37 66 37t63 -37l154 -211q16 -23 16 -45q0 -33 -26.5 -56.5t-59.5 -23.5q-37 0 -61 33l-90 125l-92 -125q-25 -33 -62 -33q-33 0 -57.5 23.5t-24.5 54.5zM461 539h465l-234 610z" />
<glyph unicode="&#xc3;" horiz-adv-x="1484" d="M-10 0q0 53 45 70q23 6 88 6l459 1224q-61 0 -84 11q-41 14 -41 67q0 76 78 76h157q76 0 76 -61l504 -1317q72 0 92 -6q49 -14 49 -70q0 -76 -78 -76h-274q-80 0 -80 76q0 49 39 66q25 10 82 10l-117 307h-582l-114 -307q63 0 86 -8q43 -14 43 -68q0 -76 -78 -76h-272 q-78 0 -78 76zM250 1611q0 45 56 62q27 8 102 63q59 43 139 43q31 0 41 -2q98 -27 162 -129q10 -16 14 -16q4 2 7 4q20 -8 94 43q82 55 110 55q37 0 66 -25.5t29 -60.5q0 -45 -54 -59q-27 -8 -100 -62q-59 -45 -139 -45q-27 0 -35 2q-100 27 -160 123q-12 18 -16 19 q-4 0 -6 -2q-27 10 -103 -43q-84 -55 -115 -56q-35 0 -63.5 26t-28.5 60zM461 539h465l-234 610z" />
<glyph unicode="&#xc4;" horiz-adv-x="1484" d="M-10 0q0 53 45 70q23 6 88 6l459 1224q-61 0 -84 11q-41 14 -41 67q0 76 78 76h157q76 0 76 -61l504 -1317q72 0 92 -6q49 -14 49 -70q0 -76 -78 -76h-274q-80 0 -80 76q0 49 39 66q25 10 82 10l-117 307h-582l-114 -307q63 0 86 -8q43 -14 43 -68q0 -76 -78 -76h-272 q-78 0 -78 76zM373 1677q0 55 40 94t93 39q55 0 91 -38t36 -93q0 -53 -37 -92t-90 -39q-55 0 -94 38t-39 91zM461 539h465l-234 610zM701 1677q0 55 40 94t93 39q55 0 91 -38t36 -93q0 -53 -37 -92t-90 -39q-55 0 -94 38t-39 91z" />
<glyph unicode="&#xc5;" horiz-adv-x="1484" d="M-10 0q0 55 45 70q23 8 90 8l469 1249q-63 0 -86 8q-43 16 -43 70q0 78 80 78h162q78 0 77 -62l512 -1343q74 0 97 -6q49 -14 49 -72q0 -78 -80 -78h-281q-80 0 -80 78q0 51 39 68q25 10 84 10l-118 313h-594l-117 -313q63 0 88 -8q43 -16 43 -70q0 -78 -80 -78h-276 q-80 0 -80 78zM465 1710q0 84 60.5 144.5t144.5 60.5t146.5 -58.5t62.5 -142.5q0 -82 -60.5 -142.5t-142.5 -60.5q-86 0 -148.5 57.5t-62.5 141.5zM471 549h473l-237 622zM553 1704q0 -49 39 -82t90 -33q49 0 83 38t34 89q0 49 -39 82t-90 33q-49 0 -83 -39t-34 -88z" />
<glyph unicode="&#xc6;" horiz-adv-x="1744" d="M-53 0q0 51 41 68q23 10 84 10l413 1249q-102 0 -102 78t80 78h1040q80 0 80 -78v-221q0 -78 -80 -78t-80 78v143h-616v-614l426 127q0 10 -2 40.5t-2 49.5q0 119 84 119q80 0 80 -78v-441q0 -78 -80 -77q-80 0 -80 77v152l-426 -127v-477h704v143q0 78 80 78t80 -78 v-221q0 -78 -80 -78h-1003q-80 0 -80 78q0 55 47 72q23 6 92 6v432l-299 -104l-108 -328q100 0 100 -78t-80 -78h-233q-80 0 -80 78zM408 582l239 84v641z" />
<glyph unicode="&#xc7;" horiz-adv-x="1400" d="M68 692q0 330 168 561q186 258 505 258q186 0 342 -104q14 18 45 18q33 0 59.5 -19.5t26.5 -49.5v-240q0 -45 -75 -45q-86 0 -86 88v35q2 23 2 35q-135 125 -320 125q-254 0 -391 -219q-117 -186 -117 -455q0 -262 125 -440q141 -199 393 -199q213 0 383 242q29 41 66 41 q33 0 58.5 -22.5t25.5 -55.5q0 -16 -10 -39q-14 -31 -66 -94q-193 -229 -457 -230q-12 0 -36 2q92 -96 92 -153q0 -35 -29 -111q-68 -76 -168 -76q-63 0 -118.5 40t-55.5 102q0 63 41 63q27 0 67 -34.5t66 -34.5q39 0 39 38q0 31 -35 58q-25 16 -49 30q-8 10 -10 56l-2 55 q-238 82 -365 305q-115 201 -114 469z" />
<glyph unicode="&#xc8;" horiz-adv-x="1269" d="M20 0q0 55 46 70q20 6 90 6v1224q-70 0 -90 9q-45 14 -46 69q0 76 76 76h799q20 45 74 45q63 0 71 -63q37 -299 37 -303q0 -74 -78 -74q-66 0 -73 63l-21 178h-594v-477h418q0 104 2 111q12 63 76 63q76 0 76 -73v-373q0 -76 -76 -76q-80 0 -80 113q0 16 2 43v37h-418 v-592h672l37 184q10 57 72 57q76 0 75 -67q0 -8 -49 -264q-12 -61 -76 -62h-946q-76 0 -76 76zM422 1819q0 33 24.5 55.5t57.5 22.5q39 0 64 -35l166 -240q14 -22 14 -45q0 -33 -24.5 -55t-57.5 -22q-39 0 -63 34l-166 240q-14 23 -15 45z" />
<glyph unicode="&#xc9;" horiz-adv-x="1269" d="M20 0q0 55 46 70q20 6 90 6v1224q-70 0 -90 9q-45 14 -46 69q0 76 76 76h799q20 45 74 45q63 0 71 -63q37 -299 37 -303q0 -74 -78 -74q-66 0 -73 63l-21 178h-594v-477h418q0 104 2 111q12 63 76 63q76 0 76 -73v-373q0 -76 -76 -76q-80 0 -80 113q0 16 2 43v37h-418 v-592h672l37 184q10 57 72 57q76 0 75 -67q0 -8 -49 -264q-12 -61 -76 -62h-946q-76 0 -76 76zM455 1568q0 25 16 47l176 240q25 33 62 33q33 0 59.5 -23.5t26.5 -56.5q0 -23 -17 -45l-176 -240q-24 -35 -63 -35q-33 0 -58.5 24t-25.5 56z" />
<glyph unicode="&#xca;" horiz-adv-x="1269" d="M20 0q0 55 46 70q20 6 90 6v1224q-70 0 -90 9q-45 14 -46 69q0 76 76 76h799q20 45 74 45q63 0 71 -63q37 -299 37 -303q0 -74 -78 -74q-66 0 -73 63l-21 178h-594v-477h418q0 104 2 111q12 63 76 63q76 0 76 -73v-373q0 -76 -76 -76q-80 0 -80 113q0 16 2 43v37h-418 v-592h672l37 184q10 57 72 57q76 0 75 -67q0 -8 -49 -264q-12 -61 -76 -62h-946q-76 0 -76 76zM391 1585q0 25 17 47l157 211q29 37 66 37t63 -37l154 -211q16 -23 16 -45q0 -33 -26.5 -56.5t-59.5 -23.5q-37 0 -61 33l-90 125l-92 -125q-25 -33 -62 -33q-33 0 -57.5 23.5 t-24.5 54.5z" />
<glyph unicode="&#xcb;" horiz-adv-x="1269" d="M20 0q0 55 46 70q20 6 90 6v1224q-70 0 -90 9q-45 14 -46 69q0 76 76 76h799q20 45 74 45q63 0 71 -63q37 -299 37 -303q0 -74 -78 -74q-66 0 -73 63l-21 178h-594v-477h418q0 104 2 111q12 63 76 63q76 0 76 -73v-373q0 -76 -76 -76q-80 0 -80 113q0 16 2 43v37h-418 v-592h672l37 184q10 57 72 57q76 0 75 -67q0 -8 -49 -264q-12 -61 -76 -62h-946q-76 0 -76 76zM371 1702q0 55 40 94t93 39q55 0 91 -38t36 -93q0 -53 -37 -92t-90 -39q-55 0 -94 38t-39 91zM699 1702q0 55 40 94t93 39q55 0 91 -38t36 -93q0 -53 -37 -92t-90 -39 q-55 0 -94 38t-39 91z" />
<glyph unicode="&#xcc;" horiz-adv-x="714" d="M63 0q0 63 68 76h115v1224q-106 0 -115 3q-68 12 -68 75q0 76 80 76h361q78 0 78 -76q0 -63 -66 -75q-8 -2 -115 -3v-1224h115q66 -12 66 -76q0 -76 -78 -76h-361q-80 0 -80 76zM141 1812q0 33 24.5 55.5t57.5 22.5q39 0 64 -35l166 -240q14 -22 14 -45q0 -33 -24.5 -55 t-57.5 -22q-39 0 -63 34l-166 240q-14 23 -15 45z" />
<glyph unicode="&#xcd;" horiz-adv-x="714" d="M63 0q0 63 68 76h115v1224q-106 0 -115 3q-68 12 -68 75q0 76 80 76h361q78 0 78 -76q0 -63 -66 -75q-8 -2 -115 -3v-1224h115q66 -12 66 -76q0 -76 -78 -76h-361q-80 0 -80 76zM160 1579q0 25 16 47l176 240q25 33 62 33q33 0 59.5 -23.5t26.5 -56.5q0 -23 -17 -45 l-176 -240q-24 -35 -63 -35q-33 0 -58.5 24t-25.5 56z" />
<glyph unicode="&#xce;" horiz-adv-x="714" d="M63 0q0 63 68 76h115v1224q-106 0 -115 3q-68 12 -68 75q0 76 80 76h361q78 0 78 -76q0 -63 -66 -75q-8 -2 -115 -3v-1224h115q66 -12 66 -76q0 -76 -78 -76h-361q-80 0 -80 76zM100 1579q0 25 17 47l157 211q29 37 66 37t63 -37l154 -211q16 -23 16 -45 q0 -33 -26.5 -56.5t-59.5 -23.5q-37 0 -61 33l-90 125l-92 -125q-25 -33 -62 -33q-33 0 -57.5 23.5t-24.5 54.5z" />
<glyph unicode="&#xcf;" horiz-adv-x="714" d="M61 1710q0 55 40 94t93 39q55 0 91 -38t36 -93q0 -53 -37 -92t-90 -39q-55 0 -94 38t-39 91zM63 0q0 63 68 76h115v1224q-106 0 -115 3q-68 12 -68 75q0 76 80 76h361q78 0 78 -76q0 -63 -66 -75q-8 -2 -115 -3v-1224h115q66 -12 66 -76q0 -76 -78 -76h-361q-80 0 -80 76 zM389 1710q0 55 40 94t93 39q55 0 91 -38t36 -93q0 -53 -37 -92t-90 -39q-55 0 -94 38t-39 91z" />
<glyph unicode="&#xd0;" horiz-adv-x="1320" d="M-23 696q0 51 60 76q10 4 102 27v528q-70 0 -92 6q-47 16 -47 72q0 78 80 78h475q326 0 502 -250q154 -217 153 -557q0 -305 -131 -512q-154 -242 -442 -242h-561q-80 0 -80 78q0 57 49 72q20 6 94 6v559q-74 -20 -86 -21q-33 0 -54.5 25t-21.5 55zM299 78h338 q215 0 326 203q88 162 88 395q0 279 -107 446q-127 203 -389 203h-256v-483q150 41 162 41q33 0 54.5 -24.5t21.5 -55.5q0 -59 -62 -76l-176 -47v-602z" />
<glyph unicode="&#xd1;" horiz-adv-x="1452" d="M20 1378q0 80 119 80q18 0 49 -2t41 -2q33 0 50 -16q2 -2 26 -41l748 -1139v1042q-72 0 -95 7q-47 16 -47 71q0 76 78 76h277q78 0 77 -76q0 -55 -45 -69q-23 -8 -90 -9v-1300q0 -33 -24.5 -53.5t-57.5 -20.5q-41 0 -61 31l-760 1157v-1038q82 0 101 -4q53 -14 53 -72 q0 -76 -78 -76h-275q-78 0 -77 76q0 49 39 66q23 10 82 10v1224q-63 0 -87 9q-43 16 -43 69zM215 1572q0 45 56 62q27 8 102 63q59 43 139 43q31 0 41 -2q98 -27 162 -129q10 -16 14 -16q4 2 7 4q20 -8 94 43q82 55 110 55q37 0 66 -25.5t29 -60.5q0 -45 -54 -59 q-27 -8 -100 -62q-59 -45 -139 -45q-27 0 -35 2q-100 27 -160 123q-12 18 -16 19q-4 0 -6 -2q-27 10 -103 -43q-84 -55 -115 -56q-35 0 -63.5 26t-28.5 60z" />
<glyph unicode="&#xd2;" horiz-adv-x="1525" d="M59 692q0 309 179 539q193 252 491 252q299 0 492 -252q176 -230 176 -539q0 -307 -176 -538q-193 -250 -492 -250t-491 250q-178 231 -179 538zM217 692q0 -238 133 -426q150 -211 379 -211t377 211q135 188 135 426t-135 426q-150 211 -377 211q-229 0 -377 -211 q-135 -188 -135 -426zM549 1853q0 33 24.5 55.5t57.5 22.5q39 0 64 -35l166 -240q14 -22 14 -45q0 -33 -24.5 -55t-57.5 -22q-39 0 -63 34l-166 240q-14 23 -15 45z" />
<glyph unicode="&#xd3;" horiz-adv-x="1525" d="M59 692q0 309 179 539q193 252 491 252q299 0 492 -252q176 -230 176 -539q0 -307 -176 -538q-193 -250 -492 -250t-491 250q-178 231 -179 538zM217 692q0 -238 133 -426q150 -211 379 -211t377 211q135 188 135 426t-135 426q-150 211 -377 211q-229 0 -377 -211 q-135 -188 -135 -426zM445 1570q0 25 16 47l176 240q25 33 62 33q33 0 59.5 -23.5t26.5 -56.5q0 -23 -17 -45l-176 -240q-24 -35 -63 -35q-33 0 -58.5 24t-25.5 56z" />
<glyph unicode="&#xd4;" horiz-adv-x="1525" d="M59 692q0 309 179 539q193 252 491 252q299 0 492 -252q176 -230 176 -539q0 -307 -176 -538q-193 -250 -492 -250t-491 250q-178 231 -179 538zM217 692q0 -238 133 -426q150 -211 379 -211t377 211q135 188 135 426t-135 426q-150 211 -377 211q-229 0 -377 -211 q-135 -188 -135 -426zM495 1610q0 25 17 47l157 211q29 37 66 37t63 -37l154 -211q16 -23 16 -45q0 -33 -26.5 -56.5t-59.5 -23.5q-37 0 -61 33l-90 125l-92 -125q-25 -33 -62 -33q-33 0 -57.5 23.5t-24.5 54.5z" />
<glyph unicode="&#xd5;" horiz-adv-x="1525" d="M59 692q0 309 179 539q193 252 491 252q299 0 492 -252q176 -230 176 -539q0 -307 -176 -538q-193 -250 -492 -250t-491 250q-178 231 -179 538zM217 692q0 -238 133 -426q150 -211 379 -211t377 211q135 188 135 426t-135 426q-150 211 -377 211q-229 0 -377 -211 q-135 -188 -135 -426zM366 1644q0 45 56 62q27 8 102 63q59 43 139 43q31 0 41 -2q98 -27 162 -129q10 -16 14 -16q4 2 7 4q20 -8 94 43q82 55 110 55q37 0 66 -25.5t29 -60.5q0 -45 -54 -59q-27 -8 -100 -62q-59 -45 -139 -45q-27 0 -35 2q-100 27 -160 123q-12 18 -16 19 q-4 0 -6 -2q-27 10 -103 -43q-84 -55 -115 -56q-35 0 -63.5 26t-28.5 60z" />
<glyph unicode="&#xd6;" horiz-adv-x="1525" d="M59 692q0 309 179 539q193 252 491 252q299 0 492 -252q176 -230 176 -539q0 -307 -176 -538q-193 -250 -492 -250t-491 250q-178 231 -179 538zM217 692q0 -238 133 -426q150 -211 379 -211t377 211q135 188 135 426t-135 426q-150 211 -377 211q-229 0 -377 -211 q-135 -188 -135 -426zM485 1718q0 55 40 94t93 39q55 0 91 -38t36 -93q0 -53 -37 -92t-90 -39q-55 0 -94 38t-39 91zM813 1718q0 55 40 94t93 39q55 0 91 -38t36 -93q0 -53 -37 -92t-90 -39q-55 0 -94 38t-39 91z" />
<glyph unicode="&#xd7;" horiz-adv-x="847" d="M78 197q0 33 24 57l199 201l-199 198q-25 25 -24 54q0 33 25.5 58.5t58.5 25.5q29 0 53 -25l199 -199l200 199q25 25 58 25q31 0 54.5 -24t23.5 -54q0 -33 -25 -58l-199 -200l183 -183q25 -25 24 -53q0 -33 -25.5 -58.5t-58.5 -25.5q-29 0 -53 25l-182 182l-201 -199 q-25 -25 -57 -24q-31 0 -54.5 23.5t-23.5 54.5z" />
<glyph unicode="&#xd8;" horiz-adv-x="1511" d="M61 707q0 313 181 550q197 256 501 256q225 0 400 -151q29 39 57 76q39 47 74 47q33 0 59.5 -24.5t26.5 -57.5q0 -27 -43 -82q-33 -37 -64 -76q172 -233 172 -538q0 -313 -180 -549q-197 -256 -502 -256q-238 0 -415 161q-41 -55 -80 -108q-61 -76 -98 -76 q-33 0 -60 23.5t-27 56.5q0 29 68 115l90 110q-160 229 -160 523zM221 707q1 -216 105 -388l718 916q-133 121 -301 121q-233 0 -385 -215q-137 -193 -137 -434zM428 190q139 -133 315 -133q233 0 385 215q137 193 138 435q0 227 -117 405z" />
<glyph unicode="&#xd9;" horiz-adv-x="1482" d="M20 1405q0 78 80 78h271q80 0 80 -78q0 -59 -58 -74q-16 -4 -104 -4v-870q0 -168 129 -281q123 -111 293 -110q170 0 296 111.5t126 279.5v870q-98 0 -111 2q-63 14 -64 76q0 78 80 78h269q80 0 79 -78q0 -78 -94 -78v-870q0 -233 -173 -390t-408 -157q-236 0 -406 153 q-176 160 -176 394v870q-109 0 -109 78zM497 1722q0 33 24.5 55.5t57.5 22.5q39 0 64 -35l166 -240q14 -22 14 -45q0 -33 -24.5 -55t-57.5 -22q-39 0 -63 34l-166 240q-14 23 -15 45z" />
<glyph unicode="&#xda;" horiz-adv-x="1482" d="M20 1405q0 78 80 78h271q80 0 80 -78q0 -59 -58 -74q-16 -4 -104 -4v-870q0 -168 129 -281q123 -111 293 -110q170 0 296 111.5t126 279.5v870q-98 0 -111 2q-63 14 -64 76q0 78 80 78h269q80 0 79 -78q0 -78 -94 -78v-870q0 -233 -173 -390t-408 -157q-236 0 -406 153 q-176 160 -176 394v870q-109 0 -109 78zM543 1507q0 25 16 47l176 240q25 33 62 33q33 0 59.5 -23.5t26.5 -56.5q0 -23 -17 -45l-176 -240q-24 -35 -63 -35q-33 0 -58.5 24t-25.5 56z" />
<glyph unicode="&#xdb;" horiz-adv-x="1482" d="M20 1405q0 78 80 78h271q80 0 80 -78q0 -59 -58 -74q-16 -4 -104 -4v-870q0 -168 129 -281q123 -111 293 -110q170 0 296 111.5t126 279.5v870q-98 0 -111 2q-63 14 -64 76q0 78 80 78h269q80 0 79 -78q0 -78 -94 -78v-870q0 -233 -173 -390t-408 -157q-236 0 -406 153 q-176 160 -176 394v870q-109 0 -109 78zM463 1493q0 25 17 47l157 211q29 37 66 37t63 -37l154 -211q16 -23 16 -45q0 -33 -26.5 -56.5t-59.5 -23.5q-37 0 -61 33l-90 125l-92 -125q-25 -33 -62 -33q-33 0 -57.5 23.5t-24.5 54.5z" />
<glyph unicode="&#xdc;" horiz-adv-x="1482" d="M20 1405q0 78 80 78h271q80 0 80 -78q0 -59 -58 -74q-16 -4 -104 -4v-870q0 -168 129 -281q123 -111 293 -110q170 0 296 111.5t126 279.5v870q-98 0 -111 2q-63 14 -64 76q0 78 80 78h269q80 0 79 -78q0 -78 -94 -78v-870q0 -233 -173 -390t-408 -157q-236 0 -406 153 q-176 160 -176 394v870q-109 0 -109 78zM399 1612q0 55 40 94t93 39q55 0 91 -38t36 -93q0 -53 -37 -92t-90 -39q-55 0 -94 38t-39 91zM727 1612q0 55 40 94t93 39q55 0 91 -38t36 -93q0 -53 -37 -92t-90 -39q-55 0 -94 38t-39 91z" />
<glyph unicode="&#xdd;" horiz-adv-x="1318" d="M4 1405q0 78 80 78h285q80 0 80 -78t-103 -78l291 -534l291 534q-104 0 -105 78q0 78 80 78h285q80 0 80 -78q0 -59 -58 -74q-16 -4 -102 -4l-389 -709v-540q109 0 117 -2q68 -12 67 -76q0 -78 -80 -78h-368q-80 0 -80 78q0 63 67 76q8 2 117 2v528l-393 721 q-88 0 -105 4q-57 14 -57 74zM479 1456q0 25 16 47l176 240q25 33 62 33q33 0 59.5 -23.5t26.5 -56.5q0 -23 -17 -45l-176 -240q-24 -35 -63 -35q-33 0 -58.5 24t-25.5 56z" />
<glyph unicode="&#xdf;" horiz-adv-x="1228" d="M18 0q0 78 111 78v975q0 141 70.5 250.5t199.5 162.5h-2q80 31 166 31q190 0 338 -123q156 -131 156 -315q0 -82 -44 -165t-110 -136q231 -102 232 -381q0 -207 -119 -338q-121 -137 -326 -137q-76 0 -119 23.5t-79 66.5q-45 51 -46 94q0 23 17 23q4 0 14 -5 q119 -51 213 -51q141 0 217 105q68 94 68 241q0 207 -277 246q-31 0 -92 7t-61 85q0 63 55 72q299 47 299 272q0 102 -121 187q-111 76 -219 75q-53 0 -96 -20h-2q-172 -78 -172 -270v-975q66 0 88 -8q45 -16 45 -70q0 -78 -80 -78h-244q-80 0 -80 78z" />
<glyph unicode="&#xe0;" horiz-adv-x="1085" d="M57 199q0 199 170 303q141 86 353 86q57 0 127 -6q-12 158 -84 186q-98 39 -160 39q-74 0 -111 -37q-6 -4 -47 -65q-23 -37 -59 -37q-33 0 -58.5 21.5t-25.5 53.5q0 14 6 31q76 193 295 193q121 0 227.5 -55.5t145.5 -163.5q31 -80 30 -218v-452q70 0 92 -6 q47 -16 48 -72q0 -78 -80 -78h-140q-70 0 -84 82q-109 -104 -272 -104q-152 0 -256 73q-117 82 -117 226zM215 197q0 -141 221 -142q255 0 269 369q-45 8 -101 8q-389 0 -389 -235zM280 1319q0 33 24.5 55.5t57.5 22.5q39 0 64 -35l166 -240q14 -22 14 -45q0 -33 -24.5 -55 t-57.5 -22q-39 0 -63 34l-166 240q-14 23 -15 45z" />
<glyph unicode="&#xe1;" horiz-adv-x="1085" d="M57 199q0 199 170 303q141 86 353 86q57 0 127 -6q-12 158 -84 186q-98 39 -160 39q-74 0 -111 -37q-6 -4 -47 -65q-23 -37 -59 -37q-33 0 -58.5 21.5t-25.5 53.5q0 14 6 31q76 193 295 193q121 0 227.5 -55.5t145.5 -163.5q31 -80 30 -218v-452q70 0 92 -6 q47 -16 48 -72q0 -78 -80 -78h-140q-70 0 -84 82q-109 -104 -272 -104q-152 0 -256 73q-117 82 -117 226zM215 197q0 -141 221 -142q255 0 269 369q-45 8 -101 8q-389 0 -389 -235zM332 1058q0 25 16 47l176 240q25 33 62 33q33 0 59.5 -23.5t26.5 -56.5q0 -23 -17 -45 l-176 -240q-24 -35 -63 -35q-33 0 -58.5 24t-25.5 56z" />
<glyph unicode="&#xe2;" horiz-adv-x="1085" d="M57 199q0 199 170 303q141 86 353 86q57 0 127 -6q-12 158 -84 186q-98 39 -160 39q-74 0 -111 -37q-6 -4 -47 -65q-23 -37 -59 -37q-33 0 -58.5 21.5t-25.5 53.5q0 14 6 31q76 193 295 193q121 0 227.5 -55.5t145.5 -163.5q31 -80 30 -218v-452q70 0 92 -6 q47 -16 48 -72q0 -78 -80 -78h-140q-70 0 -84 82q-109 -104 -272 -104q-152 0 -256 73q-117 82 -117 226zM215 197q0 -141 221 -142q255 0 269 369q-45 8 -101 8q-389 0 -389 -235zM252 1094q0 25 17 47l157 211q29 37 66 37t63 -37l154 -211q16 -23 16 -45 q0 -33 -26.5 -56.5t-59.5 -23.5q-37 0 -61 33l-90 125l-92 -125q-25 -33 -62 -33q-33 0 -57.5 23.5t-24.5 54.5z" />
<glyph unicode="&#xe3;" horiz-adv-x="1085" d="M57 199q0 199 170 303q141 86 353 86q57 0 127 -6q-12 158 -84 186q-98 39 -160 39q-74 0 -111 -37q-6 -4 -47 -65q-23 -37 -59 -37q-33 0 -58.5 21.5t-25.5 53.5q0 14 6 31q76 193 295 193q121 0 227.5 -55.5t145.5 -163.5q31 -80 30 -218v-452q70 0 92 -6 q47 -16 48 -72q0 -78 -80 -78h-140q-70 0 -84 82q-109 -104 -272 -104q-152 0 -256 73q-117 82 -117 226zM106 1208q0 45 56 62q27 8 102 63q59 43 139 43q31 0 41 -2q98 -27 162 -129q10 -16 14 -16q4 2 7 4q20 -8 94 43q82 55 110 55q37 0 66 -25.5t29 -60.5 q0 -45 -54 -59q-27 -8 -100 -62q-59 -45 -139 -45q-27 0 -35 2q-100 27 -160 123q-12 18 -16 19q-4 0 -6 -2q-27 10 -103 -43q-84 -55 -115 -56q-35 0 -63.5 26t-28.5 60zM215 197q0 -141 221 -142q255 0 269 369q-45 8 -101 8q-389 0 -389 -235z" />
<glyph unicode="&#xe4;" horiz-adv-x="1085" d="M57 199q0 199 170 303q141 86 353 86q57 0 127 -6q-12 158 -84 186q-98 39 -160 39q-74 0 -111 -37q-6 -4 -47 -65q-23 -37 -59 -37q-33 0 -58.5 21.5t-25.5 53.5q0 14 6 31q76 193 295 193q121 0 227.5 -55.5t145.5 -163.5q31 -80 30 -218v-452q70 0 92 -6 q47 -16 48 -72q0 -78 -80 -78h-140q-70 0 -84 82q-109 -104 -272 -104q-152 0 -256 73q-117 82 -117 226zM215 197q0 -141 221 -142q255 0 269 369q-45 8 -101 8q-389 0 -389 -235zM244 1298q0 55 40 94t93 39q55 0 91 -38t36 -93q0 -53 -37 -92t-90 -39q-55 0 -94 38 t-39 91zM572 1298q0 55 40 94t93 39q55 0 91 -38t36 -93q0 -53 -37 -92t-90 -39q-55 0 -94 38t-39 91z" />
<glyph unicode="&#xe5;" horiz-adv-x="1085" d="M57 199q0 199 170 303q141 86 353 86q57 0 127 -6q-12 158 -84 186q-98 39 -160 39q-74 0 -111 -37q-6 -4 -47 -65q-23 -37 -59 -37q-33 0 -58.5 21.5t-25.5 53.5q0 14 6 31q76 193 295 193q121 0 227.5 -55.5t145.5 -163.5q31 -80 30 -218v-452q70 0 92 -6 q47 -16 48 -72q0 -78 -80 -78h-140q-70 0 -84 82q-109 -104 -272 -104q-152 0 -256 73q-117 82 -117 226zM215 197q0 -141 221 -142q255 0 269 369q-45 8 -101 8q-389 0 -389 -235zM274 1198q0 84 60.5 144.5t144.5 60.5t146.5 -58.5t62.5 -142.5t-59.5 -143.5t-143.5 -59.5 t-147.5 57.5t-63.5 141.5zM362 1192q0 -51 39 -83t91 -32q45 0 80.5 35t35.5 80q0 55 -36.5 86t-92.5 31q-47 0 -82 -35t-35 -82z" />
<glyph unicode="&#xe6;" horiz-adv-x="1597" d="M23 190q0 182 153 308q145 119 332 118q68 0 123 -24q-6 35 -13 72q-16 63 -67 102q-43 31 -123 31q-152 0 -252 -70q-29 -20 -51 -20q-31 0 -55.5 25.5t-24.5 58.5q0 72 143 131q121 49 213 49q276 0 351 -226q137 217 358 218q156 0 300 -138.5t144 -292.5 q0 -102 -94 -141l-633 2q14 -129 80 -225q78 -115 195 -115q84 0 178 71t113 71q33 0 57.5 -24t24.5 -56q0 -27 -23 -54q-143 -164 -340 -163q-115 0 -217 67q-96 61 -158 166q-109 -233 -346 -233q-143 0 -250 73q-119 82 -118 219zM186 180q0 -121 203 -121q135 0 193 121 q33 70 53 240q-55 41 -135 41q-51 0 -115 -21q-70 -23 -102 -55q-96 -98 -97 -205zM840 545h530q0 100 -85 181t-187 81q-98 0 -172 -84q-61 -72 -86 -178z" />
<glyph unicode="&#xe7;" horiz-adv-x="991" d="M53 436q0 213 115 359q123 158 330 157q129 0 223 -71q14 14 49 14q78 0 78 -78v-233q0 -59 -80 -60q-82 0 -82 94v39q2 27 2 39q-18 45 -86 74q-57 25 -113 25q-145 0 -217 -125q-59 -102 -59 -260q0 -135 70 -238q82 -119 209 -119q94 0 180 82t108 82q33 0 59.5 -23.5 t26.5 -56.5q0 -20 -16 -45q-57 -88 -150.5 -142t-195.5 -54v-17q70 -57 69 -129q0 -45 -22 -106q-72 -86 -180 -86q-102 0 -154 94q0 35 16 69q18 43 52 43q29 0 43 -41.5t47 -41.5q68 0 67 53q0 55 -49 83.5t-49 55.5v57q-291 135 -291 506z" />
<glyph unicode="&#xe8;" horiz-adv-x="1087" d="M51 449q-2 193 123 348q133 166 322 166q156 0 301 -140.5t145 -294.5q0 -102 -96 -141h-631q14 -129 78 -221q78 -115 194 -115q84 0 178.5 72t112.5 72q33 0 57.5 -24t24.5 -56q0 -27 -22 -54q-145 -164 -340 -163q-182 0 -316 153q-127 147 -129 334zM225 545h531 q0 100 -85 181t-188 81q-98 0 -172 -84q-61 -72 -86 -178zM276 1313q0 33 24.5 55.5t57.5 22.5q39 0 64 -35l166 -240q14 -22 14 -45q0 -33 -24.5 -55t-57.5 -22q-39 0 -63 34l-166 240q-14 23 -15 45z" />
<glyph unicode="&#xe9;" horiz-adv-x="1087" d="M51 449q-2 193 123 348q133 166 322 166q156 0 301 -140.5t145 -294.5q0 -102 -96 -141h-631q14 -129 78 -221q78 -115 194 -115q84 0 178.5 72t112.5 72q33 0 57.5 -24t24.5 -56q0 -27 -22 -54q-145 -164 -340 -163q-182 0 -316 153q-127 147 -129 334zM225 545h531 q0 100 -85 181t-188 81q-98 0 -172 -84q-61 -72 -86 -178zM320 1052q0 25 16 47l176 240q25 33 62 33q33 0 59.5 -23.5t26.5 -56.5q0 -23 -17 -45l-176 -240q-24 -35 -63 -35q-33 0 -58.5 24t-25.5 56z" />
<glyph unicode="&#xea;" horiz-adv-x="1087" d="M51 449q-2 193 123 348q133 166 322 166q156 0 301 -140.5t145 -294.5q0 -102 -96 -141h-631q14 -129 78 -221q78 -115 194 -115q84 0 178.5 72t112.5 72q33 0 57.5 -24t24.5 -56q0 -27 -22 -54q-145 -164 -340 -163q-182 0 -316 153q-127 147 -129 334zM225 545h531 q0 100 -85 181t-188 81q-98 0 -172 -84q-61 -72 -86 -178zM284 1088q0 25 17 47l157 211q29 37 66 37t63 -37l154 -211q16 -23 16 -45q0 -33 -26.5 -56.5t-59.5 -23.5q-37 0 -61 33l-90 125l-92 -125q-25 -33 -62 -33q-33 0 -57.5 23.5t-24.5 54.5z" />
<glyph unicode="&#xeb;" horiz-adv-x="1087" d="M51 449q-2 193 123 348q133 166 322 166q156 0 301 -140.5t145 -294.5q0 -102 -96 -141h-631q14 -129 78 -221q78 -115 194 -115q84 0 178.5 72t112.5 72q33 0 57.5 -24t24.5 -56q0 -27 -22 -54q-145 -164 -340 -163q-182 0 -316 153q-127 147 -129 334zM225 545h531 q0 100 -85 181t-188 81q-98 0 -172 -84q-61 -72 -86 -178zM250 1233q0 55 40 94t93 39q55 0 91 -38t36 -93q0 -53 -37 -92t-90 -39q-55 0 -94 38t-39 91zM578 1233q0 55 40 94t93 39q55 0 91 -38t36 -93q0 -53 -37 -92t-90 -39q-55 0 -94 38t-39 91z" />
<glyph unicode="&#xec;" horiz-adv-x="681" d="M77 1294q0 33 24.5 55.5t57.5 22.5q39 0 64 -35l166 -240q14 -22 14 -45q0 -33 -24.5 -55t-57.5 -22q-39 0 -63 34l-166 240q-14 23 -15 45zM111 850q0 80 79 80h160q80 0 80 -78v-774q80 0 98 -6q53 -14 54 -72q0 -78 -80 -78h-303q-80 0 -80 78q0 57 53 72q18 6 98 6 v694q-86 0 -104 4q-55 14 -55 74z" />
<glyph unicode="&#xed;" horiz-adv-x="681" d="M111 850q0 80 79 80h160q80 0 80 -78v-774q80 0 98 -6q53 -14 54 -72q0 -78 -80 -78h-303q-80 0 -80 78q0 57 53 72q18 6 98 6v694q-86 0 -104 4q-55 14 -55 74zM137 1052q0 25 16 47l176 240q25 33 62 33q33 0 59.5 -23.5t26.5 -56.5q0 -23 -17 -45l-176 -240 q-24 -35 -63 -35q-33 0 -58.5 24t-25.5 56z" />
<glyph unicode="&#xee;" horiz-adv-x="681" d="M61 1078q0 25 17 47l157 211q29 37 66 37t63 -37l154 -211q16 -23 16 -45q0 -33 -26.5 -56.5t-59.5 -23.5q-37 0 -61 33l-90 125l-92 -125q-25 -33 -62 -33q-33 0 -57.5 23.5t-24.5 54.5zM111 850q0 80 79 80h160q80 0 80 -78v-774q80 0 98 -6q53 -14 54 -72 q0 -78 -80 -78h-303q-80 0 -80 78q0 57 53 72q18 6 98 6v694q-86 0 -104 4q-55 14 -55 74z" />
<glyph unicode="&#xef;" horiz-adv-x="681" d="M39 1225q0 55 40 94t93 39q55 0 91 -38t36 -93q0 -53 -37 -92t-90 -39q-55 0 -94 38t-39 91zM111 850q0 80 79 80h160q80 0 80 -78v-774q80 0 98 -6q53 -14 54 -72q0 -78 -80 -78h-303q-80 0 -80 78q0 57 53 72q18 6 98 6v694q-86 0 -104 4q-55 14 -55 74zM367 1225 q0 55 40 94t93 39q55 0 91 -38t36 -93q0 -53 -37 -92t-90 -39q-55 0 -94 38t-39 91z" />
<glyph unicode="&#xf0;" horiz-adv-x="1163" d="M59 426q0 236 121 379q129 154 359 153q197 0 260 -90v201q-131 -35 -144 -35q-31 0 -53 23.5t-22 56.5q0 59 61 76l158 43v84q-74 0 -97 6q-49 14 -49 72q0 78 80 78h146q84 0 84 -107q0 -16 -2.5 -48t-2.5 -44q92 27 105 26q33 0 54.5 -23.5t21.5 -55.5q0 -53 -68 -80 q-57 -14 -113 -29v-1034q76 0 97 -6q51 -16 51 -74q0 -74 -78 -76q-94 -2 -147 -2q-84 0 -78 96q-115 -102 -279 -102q-207 0 -340 154q-125 145 -125 358zM219 426q0 -143 80 -248q86 -115 225 -115q102 0 181 76q72 72 92 176q2 11 2 201q0 123 -81 208t-202 85 q-147 0 -227 -123q-70 -106 -70 -260z" />
<glyph unicode="&#xf1;" horiz-adv-x="1116" d="M43 850q0 80 80 80h139q80 0 80 -72q39 37 101.5 65.5t113.5 26.5h6q178 -6 279 -129q94 -117 94 -301v-442q70 0 92 -6q47 -16 47 -72q0 -78 -80 -78h-280q-80 0 -80 78q0 55 47 72q23 6 94 6v473q0 88 -62.5 165t-148.5 77q-117 0 -176 -121q-47 -94 -47 -226v-368 q78 0 98 -6q51 -14 52 -72q0 -78 -80 -78h-281q-80 0 -80 78q0 53 43 70q25 8 88 8v694q-70 0 -92 8q-47 14 -47 70zM131 1157q0 45 56 62q27 8 102 63q59 43 139 43q31 0 41 -2q98 -27 162 -129q10 -16 14 -16q4 2 7 4q20 -8 94 43q82 55 110 55q37 0 66 -25.5t29 -60.5 q0 -45 -54 -59q-27 -8 -100 -62q-59 -45 -139 -45q-27 0 -35 2q-100 27 -160 123q-12 18 -16 19q-4 0 -6 -2q-27 10 -103 -43q-84 -55 -115 -56q-35 0 -63.5 26t-28.5 60z" />
<glyph unicode="&#xf2;" horiz-adv-x="1087" d="M45 426q0 217 115 365q127 162 338 161q211 0 338 -161q115 -147 114 -365q0 -215 -114 -363q-127 -161 -338 -161t-338 161q-115 147 -115 363zM211 426q0 -145 68 -248q80 -121 219 -121t217 121q70 102 69 248q0 147 -69 250q-78 121 -217 121t-219 -121 q-68 -102 -68 -250zM321 1300q0 33 24.5 55.5t57.5 22.5q39 0 64 -35l166 -240q14 -22 14 -45q0 -33 -24.5 -55t-57.5 -22q-39 0 -63 34l-166 240q-14 23 -15 45z" />
<glyph unicode="&#xf3;" horiz-adv-x="1087" d="M45 426q0 217 115 365q127 162 338 161q211 0 338 -161q115 -147 114 -365q0 -215 -114 -363q-127 -161 -338 -161t-338 161q-115 147 -115 363zM211 426q0 -145 68 -248q80 -121 219 -121t217 121q70 102 69 248q0 147 -69 250q-78 121 -217 121t-219 -121 q-68 -102 -68 -250zM324 1065q0 25 16 47l176 240q25 33 62 33q33 0 59.5 -23.5t26.5 -56.5q0 -23 -17 -45l-176 -240q-24 -35 -63 -35q-33 0 -58.5 24t-25.5 56z" />
<glyph unicode="&#xf4;" horiz-adv-x="1087" d="M45 426q0 217 115 365q127 162 338 161q211 0 338 -161q115 -147 114 -365q0 -215 -114 -363q-127 -161 -338 -161t-338 161q-115 147 -115 363zM211 426q0 -145 68 -248q80 -121 219 -121t217 121q70 102 69 248q0 147 -69 250q-78 121 -217 121t-219 -121 q-68 -102 -68 -250zM266 1084q0 25 17 47l157 211q29 37 66 37t63 -37l154 -211q16 -23 16 -45q0 -33 -26.5 -56.5t-59.5 -23.5q-37 0 -61 33l-90 125l-92 -125q-25 -33 -62 -33q-33 0 -57.5 23.5t-24.5 54.5z" />
<glyph unicode="&#xf5;" horiz-adv-x="1087" d="M45 426q0 217 115 365q127 162 338 161q211 0 338 -161q115 -147 114 -365q0 -215 -114 -363q-127 -161 -338 -161t-338 161q-115 147 -115 363zM104 1185q0 45 56 62q27 8 102 63q59 43 139 43q31 0 41 -2q98 -27 162 -129q10 -16 14 -16q4 2 7 4q20 -8 94 43 q82 55 110 55q37 0 66 -25.5t29 -60.5q0 -45 -54 -59q-27 -8 -100 -62q-59 -45 -139 -45q-27 0 -35 2q-100 27 -160 123q-12 18 -16 19q-4 0 -6 -2q-27 10 -103 -43q-84 -55 -115 -56q-35 0 -63.5 26t-28.5 60zM211 426q0 -145 68 -248q80 -121 219 -121t217 121 q70 102 69 248q0 147 -69 250q-78 121 -217 121t-219 -121q-68 -102 -68 -250z" />
<glyph unicode="&#xf6;" horiz-adv-x="1087" d="M45 426q0 217 115 365q127 162 338 161q211 0 338 -161q115 -147 114 -365q0 -215 -114 -363q-127 -161 -338 -161t-338 161q-115 147 -115 363zM211 426q0 -145 68 -248q80 -121 219 -121t217 121q70 102 69 248q0 147 -69 250q-78 121 -217 121t-219 -121 q-68 -102 -68 -250zM215 1216q0 55 40 94t93 39q55 0 91 -38t36 -93q0 -53 -37 -92t-90 -39q-55 0 -94 38t-39 91zM543 1216q0 55 40 94t93 39q55 0 91 -38t36 -93q0 -53 -37 -92t-90 -39q-55 0 -94 38t-39 91z" />
<glyph unicode="&#xf7;" horiz-adv-x="1062" d="M6 723q0 78 80 78h866q80 0 80 -78t-80 -78h-866q-80 0 -80 78zM350 391q0 57 42 98t100 41q57 0 99 -40.5t42 -98.5q0 -57 -42 -98t-99 -41t-99.5 41t-42.5 98zM350 1053q0 57 42 98t100 41q57 0 99 -41t42 -98q0 -55 -42 -96.5t-99 -41.5t-99.5 41t-42.5 97z" />
<glyph unicode="&#xf8;" horiz-adv-x="1032" d="M20 -18q0 27 41 75q33 35 64 70q-80 133 -80 301q0 217 125 367q133 158 344 157q131 0 250 -100q45 59 82 59q33 0 58.5 -24.5t25.5 -55.5q-1 -30 -62 -98q82 -135 82 -307q0 -215 -125 -365q-133 -160 -344 -159q-129 0 -254 102q-27 -33 -53 -63q-37 -39 -70 -39 t-58.5 23.5t-25.5 56.5zM211 426q0 -92 27 -172l430 489q-68 55 -195 56q-131 0 -203 -127q-59 -104 -59 -246zM324 113q63 -57 145 -58h53q131 2 203 127q59 104 59 244q1 96 -28 178z" />
<glyph unicode="&#xf9;" horiz-adv-x="1130" d="M14 848q0 80 80 80h139q80 0 80 -78v-461q0 -125 41 -211q53 -111 166 -110q150 0 203 106q39 76 39 242v354q-70 0 -92 8q-45 14 -45 70q0 80 80 80h137q80 0 80 -78l2 -772q72 0 92 -6q49 -16 49 -72q0 -78 -80 -78h-139q-80 0 -80 68q-94 -78 -246 -78 q-174 0 -276 158q-90 135 -90 319v381q-70 0 -93 8q-47 14 -47 70zM274 1307q0 33 24.5 55.5t57.5 22.5q39 0 64 -35l166 -240q14 -22 14 -45q0 -33 -24.5 -55t-57.5 -22q-39 0 -63 34l-166 240q-14 23 -15 45z" />
<glyph unicode="&#xfa;" horiz-adv-x="1130" d="M14 848q0 80 80 80h139q80 0 80 -78v-461q0 -125 41 -211q53 -111 166 -110q150 0 203 106q39 76 39 242v354q-70 0 -92 8q-45 14 -45 70q0 80 80 80h137q80 0 80 -78l2 -772q72 0 92 -6q49 -16 49 -72q0 -78 -80 -78h-139q-80 0 -80 68q-94 -78 -246 -78 q-174 0 -276 158q-90 135 -90 319v381q-70 0 -93 8q-47 14 -47 70zM367 1050q0 25 16 47l176 240q25 33 62 33q33 0 59.5 -23.5t26.5 -56.5q0 -23 -17 -45l-176 -240q-24 -35 -63 -35q-33 0 -58.5 24t-25.5 56z" />
<glyph unicode="&#xfb;" horiz-adv-x="1130" d="M14 848q0 80 80 80h139q80 0 80 -78v-461q0 -125 41 -211q53 -111 166 -110q150 0 203 106q39 76 39 242v354q-70 0 -92 8q-45 14 -45 70q0 80 80 80h137q80 0 80 -78l2 -772q72 0 92 -6q49 -16 49 -72q0 -78 -80 -78h-139q-80 0 -80 68q-94 -78 -246 -78 q-174 0 -276 158q-90 135 -90 319v381q-70 0 -93 8q-47 14 -47 70zM274 1084q0 25 17 47l157 211q29 37 66 37t63 -37l154 -211q16 -23 16 -45q0 -33 -26.5 -56.5t-59.5 -23.5q-37 0 -61 33l-90 125l-92 -125q-25 -33 -62 -33q-33 0 -57.5 23.5t-24.5 54.5z" />
<glyph unicode="&#xfc;" horiz-adv-x="1130" d="M14 848q0 80 80 80h139q80 0 80 -78v-461q0 -125 41 -211q53 -111 166 -110q150 0 203 106q39 76 39 242v354q-70 0 -92 8q-45 14 -45 70q0 80 80 80h137q80 0 80 -78l2 -772q72 0 92 -6q49 -16 49 -72q0 -78 -80 -78h-139q-80 0 -80 68q-94 -78 -246 -78 q-174 0 -276 158q-90 135 -90 319v381q-70 0 -93 8q-47 14 -47 70zM260 1231q0 55 40 94t93 39q55 0 91 -38t36 -93q0 -53 -37 -92t-90 -39q-55 0 -94 38t-39 91zM588 1231q0 55 40 94t93 39q55 0 91 -38t36 -93q0 -53 -37 -92t-90 -39q-55 0 -94 38t-39 91z" />
<glyph unicode="&#xfd;" horiz-adv-x="1179" d="M-37 -397q0 33 20.5 56.5t53.5 23.5q14 0 41.5 -5.5t42.5 -5.5q115 0 213 125q45 59 131 223l-311 752q-80 0 -99 6q-53 14 -53 72q0 80 80 80h280q80 0 80 -80q0 -78 -114 -78l227 -549l236 549q-59 0 -84 10q-39 16 -39 68q0 80 80 80h280q80 0 80 -80q0 -57 -49 -72 q-20 -6 -96 -6l-228 -541q-37 -96 -123 -278q-125 -221 -188 -291q-129 -143 -299 -143q-162 0 -162 84zM412 1022q0 25 16 47l176 240q25 33 62 33q33 0 59.5 -23.5t26.5 -56.5q0 -23 -17 -45l-176 -240q-24 -35 -63 -35q-33 0 -58.5 24t-25.5 56z" />
<glyph unicode="&#xfe;" horiz-adv-x="1181" d="M23 1395q0 78 79 78h140q80 0 80 -78v-533q119 96 276 96q217 0 344 -161q117 -150 117 -371q0 -215 -123 -360q-131 -152 -342 -152q-162 0 -272 96q6 -166 6 -215q0 -219 -37 -219h-170q-80 0 -80 78t121 78v1585q-70 0 -92 6q-47 16 -47 72zM324 428q0 -150 61 -248 q72 -119 213 -119q139 0 225 117q76 104 76 248q0 154 -70 258q-80 121 -225 121q-123 0 -201.5 -84t-78.5 -205v-88z" />
<glyph unicode="&#xff;" horiz-adv-x="1177" d="M-37 -397q0 33 20.5 56.5t53.5 23.5q14 0 41.5 -5.5t42.5 -5.5q115 0 213 125q45 59 131 223l-311 752q-80 0 -99 6q-53 14 -53 72q0 80 80 80h280q80 0 80 -80q0 -78 -114 -78l227 -549l236 549q-59 0 -84 10q-39 16 -39 68q0 80 80 80h280q80 0 80 -80q0 -57 -49 -72 q-20 -6 -96 -6l-228 -541q-37 -96 -123 -278q-125 -221 -188 -291q-129 -143 -299 -143q-162 0 -162 84zM297 1227q0 55 40 94t93 39q55 0 91 -38t36 -93q0 -53 -37 -92t-90 -39q-55 0 -94 38t-39 91zM625 1227q0 55 40 94t93 39q55 0 91 -38t36 -93q0 -53 -37 -92t-90 -39 q-55 0 -94 38t-39 91z" />
<glyph unicode="&#x152;" horiz-adv-x="1867" d="M14 692q0 365 168 568q182 219 541 219l907 4q80 0 80 -78v-221q0 -78 -80 -78q-84 0 -84 125q0 18 2 51t2 45h-616v-487h426q0 10 -2 40.5t-2 47.5q0 121 84 121q80 0 80 -78v-441q0 -78 -80 -77q-84 0 -84 127q0 20 2 55t2 47h-426v-604h704q0 12 -2 45t-2 51 q0 125 84 125q80 0 80 -78v-221q0 -78 -80 -78l-1005 -2q-295 0 -502 242q-197 231 -197 530zM174 692q0 -238 177 -427t413 -187h10v1249q-600 4 -600 -635z" />
<glyph unicode="&#x153;" horiz-adv-x="1708" d="M45 428q0 205 121 358q131 166 332 166q111 0 210 -60.5t158 -156.5q61 100 156 162q102 66 213 66q156 0 300 -140.5t144 -294.5q0 -102 -96 -141h-553q-80 0 -80 78q0 80 80 80h463q0 102 -85 182t-187 80q-131 0 -207 -135q-63 -111 -64 -252q0 -131 70 -242 q80 -125 205 -125q84 0 178 71t113 71q33 0 57 -24t24 -56q0 -27 -22 -54q-145 -164 -340 -163q-229 0 -371 221q-59 -94 -155 -154q-104 -63 -211 -63q-201 0 -332 168q-121 154 -121 358zM211 428q0 -143 59 -250q72 -129 203 -123l25 2l24 -2q131 -6 203 123 q59 106 59 250q0 139 -59 244q-72 127 -201 127q-4 0 -14 -2h-12h-13q-10 2 -14 2q-129 0 -201 -127q-59 -104 -59 -244z" />
<glyph unicode="&#x178;" horiz-adv-x="1308" d="M4 1405q0 78 80 78h285q80 0 80 -78t-103 -78l291 -534l291 534q-104 0 -105 78q0 78 80 78h285q80 0 80 -78q0 -59 -56 -74q-18 -4 -104 -4l-389 -709v-540q109 0 117 -2q68 -12 67 -76q0 -78 -80 -78h-368q-80 0 -80 78q0 63 67 76q8 2 117 2v528l-393 721 q-88 0 -105 4q-57 14 -57 74zM389 1618q0 55 35 94t84 39q51 0 84 -38t33 -93q0 -53 -34 -92t-83 -39t-84 38t-35 91zM686 1618q0 55 36 94t85 39t82 -38t33 -93q0 -53 -33 -92t-82 -39q-51 0 -86 38t-35 91z" />
<glyph unicode="&#x2c6;" horiz-adv-x="768" d="M141 1311q0 25 17 47l157 211q29 37 66 37t63 -37l154 -211q16 -23 16 -45q0 -33 -26.5 -56.5t-59.5 -23.5q-37 0 -61 33l-90 125l-92 -125q-25 -33 -62 -33q-33 0 -57.5 23.5t-24.5 54.5z" />
<glyph unicode="&#x2dc;" horiz-adv-x="897" d="M-29 1466q0 45 56 62q27 8 102 63q59 43 139 43q31 0 41 -2q98 -27 162 -129q10 -16 14 -16q4 2 7 4q20 -8 94 43q82 55 110 55q37 0 66 -25.5t29 -60.5q0 -45 -54 -59q-27 -8 -100 -62q-59 -45 -139 -45q-27 0 -35 2q-100 27 -160 123q-12 18 -16 19q-4 0 -6 -2 q-27 10 -103 -43q-84 -55 -115 -56q-35 0 -63.5 26t-28.5 60z" />
<glyph unicode="&#x2000;" horiz-adv-x="965" />
<glyph unicode="&#x2001;" horiz-adv-x="1931" />
<glyph unicode="&#x2002;" horiz-adv-x="965" />
<glyph unicode="&#x2003;" horiz-adv-x="1931" />
<glyph unicode="&#x2004;" horiz-adv-x="643" />
<glyph unicode="&#x2005;" horiz-adv-x="482" />
<glyph unicode="&#x2006;" horiz-adv-x="321" />
<glyph unicode="&#x2007;" horiz-adv-x="321" />
<glyph unicode="&#x2008;" horiz-adv-x="241" />
<glyph unicode="&#x2009;" horiz-adv-x="386" />
<glyph unicode="&#x200a;" horiz-adv-x="107" />
<glyph unicode="&#x2010;" horiz-adv-x="903" d="M55 481q0 78 80 78h572q78 0 77 -78q0 -76 -77 -75h-572q-80 0 -80 75z" />
<glyph unicode="&#x2011;" horiz-adv-x="903" d="M55 481q0 78 80 78h572q78 0 77 -78q0 -76 -77 -75h-572q-80 0 -80 75z" />
<glyph unicode="&#x2012;" horiz-adv-x="903" d="M55 481q0 78 80 78h572q78 0 77 -78q0 -76 -77 -75h-572q-80 0 -80 75z" />
<glyph unicode="&#x2013;" horiz-adv-x="995" d="M12 492q0 77 80 77h725q80 0 80 -77q0 -78 -80 -78h-725q-80 0 -80 78z" />
<glyph unicode="&#x2014;" horiz-adv-x="1548" d="M31 492q0 77 80 77h1202q80 0 80 -77q0 -78 -80 -78h-1202q-80 0 -80 78z" />
<glyph unicode="&#x2018;" horiz-adv-x="417" d="M51 1245q0 74 68 201q51 90 102 178l72 -41l-45 -194q86 -35 86 -125q0 -59 -40 -106.5t-97 -47.5q-61 0 -103.5 38t-42.5 97z" />
<glyph unicode="&#x2019;" horiz-adv-x="417" d="M61 1350q0 59 40 106t98 47q61 0 103 -38t42 -97q0 -74 -68 -201q-51 -90 -102 -178l-72 41l45 195q-86 35 -86 125z" />
<glyph unicode="&#x201a;" horiz-adv-x="417" d="M61 158q0 59 40 106t98 47q61 0 103 -38t42 -97q0 -74 -68 -201q-51 -90 -102 -178l-72 41l45 195q-86 35 -86 125z" />
<glyph unicode="&#x201c;" horiz-adv-x="657" d="M20 1245q0 74 68 201q51 90 102 178l72 -41l-45 -194q86 -35 86 -125q0 -59 -40 -106.5t-97 -47.5q-61 0 -103.5 38t-42.5 97zM340 1245q0 74 68 201q51 90 102 178l72 -41l-45 -194q86 -35 86 -125q0 -59 -40 -106.5t-98 -47.5q-61 0 -103 38t-42 97z" />
<glyph unicode="&#x201d;" horiz-adv-x="657" d="M33 1350q0 59 40 106t97 47q61 0 103 -38t42 -97q0 -74 -67 -201q-51 -90 -103 -178l-71 41l45 195q-86 35 -86 125zM356 1350q0 59 40 106t98 47q61 0 103 -38t42 -97q0 -74 -68 -201q-51 -90 -102 -178l-72 41l45 195q-86 35 -86 125z" />
<glyph unicode="&#x201e;" horiz-adv-x="657" d="M33 121q0 59 40 106t97 47q61 0 103 -38t42 -97q0 -74 -67 -200q-51 -90 -103 -179l-71 41l45 195q-86 35 -86 125zM356 121q0 59 40 106t98 47q61 0 103 -38t42 -97q0 -74 -68 -200q-51 -90 -102 -179l-72 41l45 195q-86 35 -86 125z" />
<glyph unicode="&#x2022;" horiz-adv-x="956" d="M49 760q0 154 99.5 248t252.5 94q147 0 243.5 -94.5t96.5 -241.5q0 -154 -99 -248t-253 -94q-147 0 -243.5 94t-96.5 242z" />
<glyph unicode="&#x2026;" horiz-adv-x="1609" d="M135 57q0 57 37 93t92 36t90 -35.5t35 -93.5q0 -55 -35 -91t-90 -36t-92 36t-37 91zM606 57q0 57 37 93t92 36t90 -35.5t35 -93.5q0 -55 -35 -91t-90 -36t-92 36t-37 91zM1087 57q0 57 37 93t92 36t90 -35.5t35 -93.5q0 -55 -35 -91t-90 -36t-92 36t-37 91z" />
<glyph unicode="&#x202f;" horiz-adv-x="386" />
<glyph unicode="&#x2039;" horiz-adv-x="780" d="M66 549q0 23 24 51l371 428q25 29 57 29q33 0 59.5 -24.5t26.5 -55.5q0 -27 -20 -49l-328 -377l328 -377q20 -23 20 -49q0 -31 -26.5 -55.5t-57.5 -24.5q-35 0 -59 29l-371 426q-24 29 -24 49z" />
<glyph unicode="&#x203a;" horiz-adv-x="780" d="M193 125q0 27 20 49l326 377l-326 377q-18 23 -18 47q0 33 25.5 56.5t58.5 23.5t57 -27l369 -428q25 -29 24 -51q0 -20 -24 -49l-369 -426q-25 -29 -60 -29q-31 0 -57 24.5t-26 55.5z" />
<glyph unicode="&#x205f;" horiz-adv-x="482" />
<glyph unicode="&#x2122;" horiz-adv-x="872" d="M137 319q0 33 25.5 56.5t58.5 23.5t58 -26l106 -117v848q0 78 80 78t80 -78v-848l106 117q25 27 58 26q33 0 58.5 -23.5t25.5 -56.5q0 -27 -23 -51l-246 -270q-29 -31 -59 -31q-31 0 -59 31l-246 270q-23 25 -23 51z" />
<glyph unicode="&#x25fc;" horiz-adv-x="931" d="M0 0v932h932v-932h-932z" />
</font>
</defs>
</svg>
